<svg width="328" height="342" viewBox="0 0 328 342" fill="none" xmlns="http://www.w3.org/2000/svg">
<g clip-path="url(#clip0_2_35)">
<path d="M296.305 77.5924C296.305 76.8268 295.767 75.6855 295.602 75.3544L295.595 75.3387C292.888 69.0005 284.787 63.1806 271.517 58.0397L271.462 58.0187L271.42 57.9786C263.238 50.1857 249.626 42.9135 233.091 37.5017C227.908 35.8056 222.397 34.2904 216.709 32.9981L216.576 32.9675L216.513 32.8465C214.183 28.3728 211.465 25.1432 205.127 22.8699L205.023 22.8326L204.969 22.736C202.763 18.7647 200.107 16.312 196.088 14.5344C195.838 14.4235 195.58 14.3161 195.317 14.2101L195.2 14.1632L195.153 14.0456C194.278 11.8302 192.27 8.62427 187.675 5.92958C182.085 2.65164 174.153 0.989548 164.099 0.989548C154.046 0.989548 146.114 2.65164 140.524 5.92958C135.928 8.62427 133.92 11.8302 133.045 14.0456L132.998 14.1632L132.881 14.2108C132.619 14.3161 132.361 14.4235 132.11 14.5344C128.091 16.312 125.435 18.7647 123.23 22.736L123.176 22.8326L123.072 22.8699C116.733 25.1432 114.016 28.3722 111.685 32.8465L111.622 32.9675L111.49 32.9974C105.801 34.2904 100.289 35.8056 95.1078 37.5017C78.5727 42.9135 64.9604 50.186 56.7784 57.9788L56.736 58.0189L56.6818 58.0399C43.4413 63.1647 35.3464 68.9713 32.62 75.2986L32.6038 75.3307C32.4374 75.6162 31.8935 76.6223 31.8935 77.5924C31.8935 81.8118 38.7919 85.444 52.9839 88.6966C65.8904 91.6544 84.0673 94.0419 105.55 95.6012L105.69 95.6116L105.769 95.7263C107.336 97.9662 109.608 99.8494 112.167 101.029L112.343 101.11L112.334 101.385C112.334 111.08 128.299 115.404 164.099 115.404C200.382 115.404 215.864 111.211 215.864 101.385L215.856 101.11L216.031 101.029C218.59 99.8494 220.862 97.9662 222.429 95.7263L222.509 95.6116L222.649 95.6012C244.131 94.0419 262.308 91.6544 275.214 88.6966C289.406 85.444 296.305 81.8118 296.305 77.5924Z" fill="white"/>
<path d="M154.688 5.9391C153.632 5.9391 152.776 6.63181 152.776 7.48631C152.776 8.3408 153.632 9.03351 154.688 9.03351C155.744 9.03351 156.599 8.3408 156.599 7.48631C156.599 6.63181 155.744 5.9391 154.688 5.9391Z" fill="#869EDC"/>
<path d="M238.589 82.5198C238.593 82.5263 238.592 82.5252 238.589 82.5198Z" fill="#869EDC"/>
<path d="M107.104 91.0496C107.102 91.0508 107.096 91.0562 107.096 91.0557C107.101 91.0531 107.103 91.0514 107.104 91.0496Z" fill="#869EDC"/>
<path d="M221.103 91.0557C221.104 91.0562 221.097 91.0508 221.095 91.0496C221.097 91.0514 221.098 91.0531 221.103 91.0557Z" fill="#869EDC"/>
<path d="M119.487 104.963C119.524 104.814 119.569 104.667 119.621 104.524C119.672 104.392 119.727 104.279 119.787 104.159L119.881 103.984L119.971 103.843C120.032 103.75 120.096 103.66 120.163 103.572C120.283 103.422 120.409 103.281 120.53 103.159C120.641 103.055 120.764 102.938 120.872 102.853C120.976 102.77 121.088 102.682 121.19 102.61L121.489 102.411C121.671 102.298 121.845 102.2 122.015 102.112C121.961 102.019 121.904 101.926 121.853 101.831C121.292 100.933 120.891 99.9792 120.717 98.9752C116.632 100.192 115.941 101.273 115.864 101.42C115.874 102.753 116.449 103.869 117.671 104.931C118.16 105.356 118.745 105.764 119.423 106.154C119.376 105.756 119.394 105.337 119.487 104.963Z" fill="#869EDC"/>
<path d="M123.497 98.5625C123.689 99.4611 124.019 100.32 124.522 101.126C125.101 100.949 125.665 100.803 126.23 100.662C127.405 100.376 128.56 100.149 129.712 99.9479C132.012 99.5482 134.295 99.2511 136.575 99.0015C137.342 98.9194 138.108 98.8432 138.874 98.7705C138.452 97.9486 138.05 97.1151 137.661 96.2736C134.815 96.5171 132.196 96.8044 129.833 97.135C127.277 97.4924 125.192 97.8767 123.481 98.262C123.487 98.3618 123.489 98.4632 123.497 98.5625Z" fill="#869EDC"/>
<path d="M182.36 98.232C185.282 98.4101 188.205 98.6415 191.133 98.9487C192.086 99.0506 193.038 99.1622 193.992 99.2824C194.529 98.4707 195.034 97.6358 195.503 96.7704C191.904 96.3525 187.823 96.0208 183.33 95.7808C183.147 96.3076 182.955 96.8339 182.747 97.3578C182.627 97.6618 182.496 97.95 182.36 98.232Z" fill="#869EDC"/>
<path d="M197.993 99.8634C198.705 99.9824 199.42 100.114 200.139 100.259C200.715 99.4163 201.213 98.5495 201.646 97.6509C200.825 97.5059 199.934 97.3634 198.982 97.2248C198.552 98.1173 198.027 98.9723 197.48 99.7819C197.651 99.8093 197.821 99.8342 197.993 99.8634Z" fill="#869EDC"/>
<path d="M201.642 100.585C202.757 100.849 203.873 101.142 205.083 101.613C205.401 101.736 205.734 101.884 206.082 102.059C206.414 102.227 206.773 102.432 207.176 102.738C207.906 101.792 208.555 100.802 209.072 99.7492C209.091 99.6726 209.108 99.5958 209.127 99.5196C207.747 99.007 205.777 98.4436 202.986 97.8997C202.794 98.3517 202.585 98.7971 202.341 99.232C202.113 99.697 201.878 100.146 201.642 100.585Z" fill="#869EDC"/>
<path d="M208.407 104.153C208.434 104.203 208.459 104.255 208.483 104.306L208.563 104.486C208.591 104.557 208.616 104.63 208.638 104.703C208.684 104.851 208.724 104.992 208.752 105.151C208.778 105.314 208.794 105.48 208.802 105.645C208.806 105.788 208.799 105.936 208.784 106.082C208.841 106.115 208.896 106.148 208.952 106.178C212.282 104.195 212.334 102.248 212.335 101.42C212.283 101.321 211.94 100.78 210.417 100.059C210.08 101.159 209.553 102.212 208.894 103.198C208.744 103.521 208.581 103.839 208.407 104.153Z" fill="#869EDC"/>
<path d="M114.393 101.385C114.393 100.978 114.657 100.06 116.649 98.9949C120.567 96.9499 129.849 95.0229 146.488 94.2255C146.701 94.2151 146.916 94.205 147.131 94.1954C147.268 94.1893 147.405 94.1827 147.543 94.1766C147.889 94.1614 148.237 94.1466 148.586 94.133C148.589 94.133 148.591 94.1323 148.592 94.1323C151.752 94.0045 155.085 93.9182 158.572 93.8746C158.644 93.8733 158.716 93.8725 158.787 93.872C159.133 93.8672 159.482 93.8638 159.831 93.8611C159.994 93.859 160.157 93.8576 160.321 93.8563C160.611 93.8534 160.9 93.8516 161.19 93.8494C161.44 93.8481 161.692 93.8468 161.945 93.8455C162.169 93.8447 162.393 93.8434 162.619 93.8428C163.108 93.8406 163.601 93.8399 164.099 93.8399C164.597 93.8399 165.091 93.8406 165.58 93.8428C165.805 93.8434 166.029 93.8447 166.253 93.8455C166.506 93.8468 166.758 93.8481 167.008 93.8494C167.299 93.8516 167.588 93.8534 167.877 93.8563C168.041 93.8576 168.205 93.859 168.367 93.8611C168.717 93.8638 169.066 93.8672 169.411 93.872C169.483 93.8725 169.554 93.8733 169.626 93.8746C173.114 93.9182 176.448 94.0045 179.607 94.1323C179.608 94.1323 179.609 94.1323 179.611 94.133C179.962 94.1466 180.31 94.1614 180.657 94.1766C180.793 94.1827 180.93 94.1893 181.065 94.1954C181.282 94.205 181.497 94.2151 181.713 94.2255C198.349 95.0229 207.631 96.9499 211.55 98.9949C213.541 100.06 213.805 100.978 213.805 101.385C213.805 109.544 198.01 113.344 164.099 113.344C130.652 113.344 114.393 109.431 114.393 101.385ZM189.28 12.1388C188.494 11.2115 187.295 10.0403 185.717 8.87375C183.728 7.75413 181.34 6.83302 178.601 6.13148C179.17 6.65831 179.468 7.33946 179.343 8.01721C179.116 9.24219 177.594 9.98724 175.943 9.68066C174.293 9.37543 173.139 8.13414 173.366 6.90916C173.501 6.18043 174.096 5.62367 174.902 5.35515C171.96 4.85959 168.711 4.57816 165.194 4.5299C158.844 5.70457 158.239 8.35371 158.798 10.3564C155.501 10.4203 152.521 10.5474 149.823 10.7377C150.365 7.64197 152.481 5.52986 152.481 5.52986C152.481 5.52986 152.468 5.51967 152.445 5.50403C151.571 5.66718 150.728 5.8514 149.912 6.0533C148.547 7.13824 146.988 9.38903 146.368 11.0328C145.767 11.0933 145.183 11.1578 144.614 11.2258C144.97 9.77039 146.078 8.17356 147.5 6.73309C143.367 8.05528 140.19 9.9383 138.173 12.2999C137.39 12.4766 136.644 12.6643 135.937 12.8648C139.836 6.67123 150.065 3.04863 164.099 3.04863C178.135 3.04863 188.363 6.67055 192.261 12.8641C191.334 12.6017 190.34 12.3604 189.28 12.1388ZM201.821 21.5573C201.069 21.3635 200.278 21.1807 199.449 21.0073C199.411 20.9679 199.375 20.9257 199.337 20.887C198.274 19.8027 197.021 18.9108 195.576 18.1971C194.139 17.4772 192.551 16.9143 190.891 16.4704C189.231 16.0238 187.509 15.6798 185.759 15.4024C185.226 15.3202 184.691 15.2461 184.154 15.1747C184.542 15.501 184.923 15.8314 185.295 16.1713C185.848 16.6791 186.384 17.2005 186.903 17.7368C187.421 18.2732 187.929 18.8211 188.392 19.4023C187.84 18.9054 187.254 18.4533 186.661 18.0135C186.066 17.5751 185.46 17.1543 184.844 16.7525C183.754 16.0448 182.628 15.3957 181.479 14.86C181.131 14.8239 180.785 14.7879 180.436 14.7546C180.011 14.7179 179.586 14.6832 179.161 14.6486C181.268 15.8885 183.319 17.7912 184.693 19.1977C183.452 19.1168 182.163 19.0454 180.825 18.9829C179.96 17.38 178.275 15.6832 176.639 14.4698C176.102 14.4365 175.566 14.4066 175.027 14.3814C172.542 14.2556 170.045 14.1883 167.542 14.1571C166.953 14.1571 166.364 14.155 165.774 14.1598C164.671 14.1673 163.568 14.1836 162.466 14.2121C161.363 14.2427 160.26 14.2801 159.161 14.3699C160.261 14.427 161.355 14.5371 162.447 14.654C163.541 14.7716 164.632 14.9014 165.722 15.0408C167.386 15.2522 169.048 15.4827 170.707 15.7213L167.134 15.7349C164.931 15.7539 162.727 15.7736 160.525 15.8396C162.715 16.068 164.898 16.3412 167.082 16.6166L171.963 17.2535L161.888 17.3099L172.882 18.7259C172.689 18.7219 172.491 18.7185 172.296 18.7151C172.152 18.713 172.008 18.7103 171.863 18.7076C171.504 18.7015 171.144 18.696 170.78 18.6906C170.579 18.6879 170.375 18.6852 170.172 18.6824C169.848 18.6784 169.524 18.6743 169.195 18.6709C168.936 18.6682 168.673 18.6654 168.413 18.6634C168.127 18.6607 167.842 18.6586 167.554 18.6559C167.218 18.6539 166.877 18.6525 166.536 18.6505C166.308 18.6498 166.083 18.6478 165.852 18.6478C165.274 18.645 164.69 18.6444 164.099 18.6444C163.508 18.6444 162.924 18.645 162.347 18.6478C162.116 18.6478 161.891 18.6498 161.663 18.6505C161.322 18.6525 160.981 18.6539 160.645 18.6559C160.356 18.6586 160.071 18.6607 159.786 18.6634C159.524 18.6654 159.262 18.6682 159.003 18.6709C158.675 18.6743 158.35 18.6784 158.026 18.6824C157.823 18.6852 157.62 18.6879 157.419 18.6906C157.054 18.696 156.694 18.7015 156.335 18.7076C156.191 18.7103 156.047 18.713 155.903 18.7151C155.498 18.7225 155.096 18.7307 154.698 18.7395C154.623 18.7409 154.548 18.7429 154.474 18.7443C150.62 18.8299 147.112 18.9713 143.92 19.1719L146.366 18.7096C147.72 18.4445 149.074 18.178 150.418 17.8755C149.041 17.885 147.666 17.8585 146.291 17.83L144.767 17.7885L147.208 17.2991C148.558 17.0387 149.907 16.7783 151.266 16.5595C149.89 16.4847 148.512 16.452 147.133 16.4201L145.605 16.3949C146.418 16.2196 147.235 16.0489 148.052 15.8892C148.724 15.7573 149.398 15.6329 150.075 15.52C150.751 15.4079 151.429 15.3018 152.114 15.2434C151.43 15.155 150.739 15.1135 150.049 15.0795C149.359 15.0456 148.667 15.0238 147.976 15.0095C147.184 14.9932 146.392 14.9857 145.6 14.983C144.645 15.0925 143.693 15.2162 142.75 15.3576C141.665 16.3562 140.599 18.036 139.966 19.4642C139.074 19.541 138.208 19.6233 137.371 19.711C137.736 18.11 138.803 16.8314 139.967 15.8484C139.066 16.0313 138.178 16.2359 137.308 16.4704C135.647 16.9143 134.059 17.4772 132.623 18.1971C131.177 18.9108 129.925 19.8027 128.862 20.887C128.823 20.9257 128.787 20.9679 128.75 21.0073C127.921 21.1807 127.13 21.3635 126.377 21.5573C127.853 19.4853 129.851 17.6791 133.313 16.2454L134.103 15.9483C137.637 14.6193 142.426 13.7111 148.758 13.1918C148.782 13.1897 148.806 13.1877 148.83 13.1857C149.112 13.1632 149.398 13.1408 149.687 13.1197C149.753 13.1143 149.819 13.1095 149.886 13.1048C150.132 13.0864 150.382 13.0694 150.633 13.0524C150.732 13.0463 150.829 13.0395 150.928 13.0327C151.147 13.0184 151.37 13.0055 151.594 12.9919C151.719 12.9844 151.843 12.9763 151.97 12.9688C152.082 12.9627 152.197 12.9566 152.311 12.9505C152.772 12.9253 153.241 12.9015 153.719 12.8791C153.805 12.875 153.89 12.8709 153.977 12.8668C154.223 12.856 154.474 12.8458 154.726 12.8356C154.833 12.8308 154.94 12.8267 155.048 12.822C155.292 12.8125 155.539 12.8043 155.787 12.7955C155.907 12.7914 156.028 12.7866 156.148 12.7832C156.391 12.7751 156.636 12.7676 156.882 12.7601C157.016 12.7567 157.149 12.7526 157.282 12.7492C157.522 12.7424 157.764 12.7363 158.009 12.7302C158.156 12.7275 158.305 12.7234 158.454 12.7207C158.688 12.7152 158.922 12.7105 159.16 12.7057C159.328 12.703 159.498 12.6996 159.668 12.6969C159.894 12.6935 160.119 12.6901 160.348 12.6867C160.544 12.684 160.742 12.6819 160.94 12.6799C161.146 12.6772 161.352 12.6744 161.561 12.6724C161.815 12.6704 162.072 12.669 162.328 12.6677C162.489 12.6663 162.647 12.6649 162.81 12.6643C163.235 12.6622 163.664 12.6615 164.099 12.6615C164.534 12.6615 164.963 12.6622 165.389 12.6643C165.552 12.6649 165.71 12.6663 165.871 12.6677C166.127 12.669 166.384 12.6704 166.637 12.6724C166.846 12.6744 167.053 12.6772 167.259 12.6799C167.457 12.6819 167.654 12.684 167.851 12.6867C168.079 12.6901 168.305 12.6935 168.53 12.6969C168.7 12.6996 168.87 12.703 169.038 12.7057C169.276 12.7105 169.511 12.7152 169.746 12.7207C169.894 12.7234 170.042 12.7275 170.189 12.7302C170.433 12.7363 170.677 12.7424 170.917 12.7492C171.05 12.7526 171.183 12.7567 171.315 12.7601C171.562 12.7676 171.808 12.7751 172.051 12.7832C172.171 12.7873 172.29 12.7914 172.409 12.7955C172.659 12.8043 172.907 12.8125 173.151 12.822C173.259 12.826 173.364 12.8308 173.47 12.8356C173.723 12.8458 173.975 12.856 174.223 12.8668C174.306 12.8709 174.389 12.875 174.473 12.8791C174.97 12.9015 175.458 12.9267 175.938 12.9532C176.034 12.9586 176.132 12.9634 176.228 12.9688C176.358 12.9763 176.485 12.9844 176.613 12.9919C176.833 13.0055 177.053 13.0184 177.27 13.0327C177.37 13.0395 177.467 13.0463 177.567 13.0524C177.817 13.0694 178.067 13.0864 178.313 13.1048C178.38 13.1095 178.445 13.1143 178.512 13.1197C178.799 13.1408 179.085 13.1625 179.367 13.1857C179.392 13.1877 179.418 13.1897 179.443 13.1918C185.774 13.7111 190.561 14.6193 194.095 15.9483L194.887 16.2461C198.348 17.6797 200.346 19.4859 201.821 21.5573ZM193.607 19.5254C193.172 19.1664 192.725 18.8184 192.267 18.4826C191.809 18.1481 191.346 17.8191 190.855 17.5295C191.389 17.7314 191.907 17.9782 192.421 18.2311C192.934 18.486 193.441 18.7559 193.942 19.0414C194.442 19.3269 194.936 19.6287 195.419 19.9686C195.6 20.0964 195.778 20.231 195.955 20.3744C195.419 20.2901 194.872 20.2086 194.307 20.1311C194.08 19.9251 193.846 19.7225 193.607 19.5254ZM211.653 31.6093C211.183 30.9574 210.679 30.3592 210.124 29.8174C209.428 29.1369 208.652 28.5401 207.801 28.0078C206.948 27.4782 206.009 27.0296 205.037 26.6183C203.07 25.8216 200.933 25.2295 198.735 24.7679C198.476 24.7135 198.214 24.6666 197.953 24.6156C198.399 25.0024 198.838 25.3954 199.266 25.7971C200.015 26.5007 200.742 27.2233 201.446 27.965C202.1 28.6563 202.74 29.3626 203.33 30.1056C203.308 30.1022 203.287 30.0988 203.265 30.0954C202.572 29.4782 201.843 28.9051 201.103 28.349C200.293 27.7427 199.467 27.1614 198.627 26.6047C197.13 25.619 195.585 24.7054 194.006 23.961C193.337 23.8679 192.665 23.7795 191.992 23.6993C191.745 23.6694 191.497 23.6442 191.251 23.6163C194.061 25.0119 196.903 27.3586 199.138 29.4693C197.308 29.211 195.464 28.9751 193.608 28.7583C191.954 26.6564 189.661 24.636 187.568 23.2554C186.744 23.186 185.919 23.1221 185.092 23.0664C182.778 22.8998 180.451 22.7972 178.123 22.7027C177.105 22.6646 176.085 22.6347 175.065 22.6075C174.84 22.6069 174.616 22.6035 174.391 22.6041C173.288 22.6048 172.184 22.6157 171.081 22.6402C169.978 22.6653 168.874 22.6993 167.776 22.7904C168.875 22.8461 169.969 22.9597 171.062 23.0807C172.154 23.203 173.245 23.339 174.334 23.4851C176.248 23.7401 178.162 24.0195 180.068 24.3124C180.082 24.324 180.097 24.3356 180.111 24.3471L175.751 24.3369C173.547 24.343 171.341 24.3492 169.139 24.4076C171.329 24.6435 173.511 24.9304 175.693 25.2172L181.724 26.0432L177.109 26.0697C174.906 26.0717 172.705 26.0711 170.502 26.0255C172.68 26.3641 174.866 26.6584 177.052 26.95L183.395 27.7665C183.399 27.7719 183.404 27.7773 183.408 27.7828C179.505 27.4939 175.551 27.2974 171.556 27.1866C171.383 27.1812 171.211 27.175 171.037 27.171C170.592 27.1594 170.145 27.1506 169.699 27.1411C169.125 27.1288 168.55 27.1186 167.974 27.1105C167.631 27.105 167.288 27.1003 166.945 27.0962C165.998 27.0867 165.049 27.0799 164.099 27.0799C163.149 27.0799 162.201 27.0867 161.254 27.0962C160.91 27.1003 160.567 27.105 160.224 27.1105C159.649 27.1186 159.074 27.1288 158.5 27.1411C158.053 27.1506 157.606 27.1594 157.161 27.171C156.988 27.175 156.816 27.1812 156.643 27.1866C149.591 27.3817 142.674 27.8548 135.922 28.6046C135.932 28.5768 135.943 28.5489 135.954 28.5203C137.211 28.2654 138.463 28.0071 139.714 27.7372C141.065 27.4456 142.417 27.1499 143.756 26.8114C142.377 26.8583 140.999 26.861 139.621 26.8596C138.67 26.8583 137.719 26.846 136.768 26.8358C138.027 26.549 139.29 26.2675 140.553 25.9949C141.9 25.7074 143.246 25.4205 144.604 25.1846C143.225 25.1268 141.842 25.1214 140.46 25.1166C139.528 25.116 138.595 25.1241 137.663 25.1309C138.897 24.8189 140.145 24.5225 141.394 24.252C142.065 24.1065 142.737 23.9705 143.412 23.8482C144.088 23.7265 144.764 23.6129 145.451 23.5579C144.767 23.4661 144.073 23.4328 143.381 23.4076C142.688 23.3839 141.994 23.3743 141.302 23.3743C140.543 23.3737 139.787 23.3832 139.029 23.3988C138.124 23.4851 137.222 23.5796 136.324 23.6864C134.656 24.8298 133.293 26.8175 132.36 29.0261C130.719 29.2341 129.09 29.4625 127.47 29.7032C127.968 27.5788 129.81 25.7237 131.605 24.3641C130.887 24.4885 130.171 24.6197 129.464 24.7679C127.266 25.2295 125.129 25.8216 123.161 26.6183C122.19 27.0296 121.251 27.4782 120.397 28.0078C119.547 28.5401 118.771 29.1369 118.075 29.8174C117.52 30.3592 117.016 30.9574 116.545 31.6093C115.864 31.7466 115.181 31.8826 114.503 32.026C116.53 28.6985 119.049 26.411 124.189 24.6598C124.411 24.5837 124.637 24.5096 124.867 24.4369C124.925 24.4178 124.987 24.4001 125.045 24.3818C125.226 24.3254 125.406 24.2689 125.593 24.2146C125.67 24.1914 125.751 24.1697 125.83 24.1466C126.003 24.097 126.176 24.0473 126.354 23.9984C126.428 23.978 126.506 23.9583 126.582 23.9379C126.77 23.8876 126.958 23.8373 127.151 23.7883C127.213 23.7727 127.278 23.7577 127.34 23.7421C127.552 23.6891 127.766 23.6367 127.985 23.5858C128.03 23.5749 128.076 23.5647 128.121 23.5545C128.363 23.4987 128.607 23.4437 128.856 23.3893C128.881 23.3845 128.906 23.3791 128.931 23.3737C129.205 23.3152 129.481 23.2574 129.765 23.201C129.767 23.2003 129.769 23.1996 129.771 23.1996C136.416 21.874 145.675 21.18 158.505 21.0297C158.549 21.0297 158.593 21.0284 158.637 21.0284C159.149 21.0223 159.67 21.0175 160.193 21.0134C160.27 21.0128 160.344 21.0121 160.42 21.0121C160.912 21.008 161.41 21.006 161.911 21.0032C162.023 21.0032 162.133 21.0019 162.246 21.0019C162.856 20.9992 163.474 20.9985 164.099 20.9985C164.724 20.9985 165.343 20.9992 165.953 21.0019C166.066 21.0019 166.176 21.0032 166.288 21.0032C166.789 21.006 167.287 21.008 167.778 21.0121C167.854 21.0121 167.929 21.0128 168.005 21.0134C168.529 21.0175 169.049 21.0223 169.562 21.0284C169.606 21.0284 169.649 21.0297 169.693 21.0297C182.523 21.18 191.781 21.874 198.427 23.199C198.429 23.1996 198.432 23.2003 198.434 23.201C198.716 23.2574 198.994 23.3152 199.267 23.3737C199.292 23.3791 199.318 23.3845 199.343 23.3893C199.591 23.4437 199.834 23.4981 200.074 23.5538C200.121 23.5647 200.168 23.5749 200.214 23.5858C200.431 23.6367 200.643 23.6891 200.855 23.7414C200.919 23.7571 200.984 23.7727 201.048 23.789C201.239 23.8373 201.425 23.8869 201.61 23.9365C201.688 23.9569 201.769 23.9773 201.847 23.9984C202.02 24.046 202.189 24.0942 202.357 24.1432C202.441 24.167 202.526 24.1908 202.608 24.2146C202.785 24.2669 202.957 24.3206 203.129 24.3743C203.197 24.3954 203.267 24.4158 203.333 24.4369C203.562 24.5096 203.786 24.5837 204.005 24.6585C209.149 26.4103 211.668 28.6978 213.696 32.0267C213.018 31.8826 212.335 31.7466 211.653 31.6093ZM207.3 30.4666C206.709 29.903 206.1 29.3558 205.468 28.8351C204.833 28.3198 204.189 27.8079 203.462 27.4232C204.232 27.7196 204.942 28.1567 205.641 28.5972C206.337 29.0438 207.016 29.5203 207.68 30.0172C208.144 30.3646 208.597 30.7283 209.045 31.1022C208.591 31.0172 208.139 30.9288 207.686 30.8466C207.556 30.7201 207.431 30.591 207.3 30.4666ZM240.392 90.2731V90.1161C240.482 90.1337 240.571 90.1528 240.658 90.1732V90.3337C240.569 91.4274 239.767 92.3221 238.719 92.5525C239.634 92.2201 240.311 91.3364 240.392 90.2731ZM238.151 92.6102C236.883 92.5918 235.842 91.6178 235.721 90.3764L235.701 90.22C235.887 90.1725 236.081 90.1297 236.282 90.0936L236.309 90.3764C236.333 90.6919 236.401 90.9904 236.507 91.2596C236.592 91.1263 236.74 91.0371 236.91 91.0371C237.175 91.0371 237.39 91.2527 237.39 91.5177C237.39 91.7721 237.192 91.9779 236.943 91.9943C237.268 92.3696 237.689 92.6014 238.151 92.6102ZM93.2159 90.2731V90.1161C93.3059 90.1337 93.394 90.1528 93.4814 90.1732V90.3337C93.3927 91.4274 92.5903 92.3221 91.5424 92.5525C92.4576 92.2201 93.135 91.3364 93.2159 90.2731ZM90.9749 92.6102C89.707 92.5918 88.6658 91.6178 88.5437 90.3764L88.5246 90.22C88.7106 90.1725 88.9033 90.1297 89.1061 90.0936L89.1326 90.3764C89.1562 90.6919 89.2253 90.9904 89.3301 91.2596C89.4153 91.1263 89.5639 91.0371 89.7338 91.0371C89.999 91.0371 90.214 91.2527 90.214 91.5177C90.214 91.7721 90.0162 91.9779 89.7667 91.9943C90.0908 92.3696 90.5125 92.6014 90.9749 92.6102ZM114.44 70.9536C114.319 71.2472 114.124 71.4822 113.912 71.6735C113.482 72.0556 112.979 72.2879 112.472 72.4674C112.919 72.1684 113.343 71.8312 113.652 71.4321C113.804 71.2321 113.913 71.0128 113.965 70.798C114.01 70.581 113.992 70.3702 113.904 70.18C113.74 69.7944 113.359 69.4824 112.943 69.2376C112.521 68.9904 112.052 68.7965 111.567 68.6428C109.621 68.0127 107.509 67.8356 105.435 67.8228C103.358 67.821 101.253 67.9702 99.2782 68.5286C98.7906 68.6776 98.3052 68.8358 97.86 69.0549C97.4184 69.2737 96.9934 69.5348 96.7174 69.8821C96.5834 70.0568 96.4838 70.2445 96.4554 70.4538C96.4263 70.6633 96.47 70.8874 96.5698 71.1071C96.7771 71.5476 97.175 71.9284 97.5941 72.2634C97.0975 72.0582 96.5993 71.7868 96.2354 71.3123C96.0546 71.0773 95.9232 70.7732 95.9073 70.4437C95.8903 70.1165 95.9821 69.7836 96.1396 69.5096C96.4586 68.9603 96.9271 68.5711 97.4099 68.2625C97.8951 67.949 98.4076 67.7059 98.9316 67.5049C99.978 67.0987 101.064 66.857 102.153 66.6831C103.244 66.5097 104.347 66.442 105.447 66.4555C106.547 66.4659 107.647 66.5721 108.734 66.7676C109.821 66.9593 110.899 67.2434 111.934 67.6868C112.449 67.9147 112.953 68.1853 113.421 68.5347C113.653 68.7137 113.873 68.9168 114.066 69.154C114.258 69.3913 114.427 69.6707 114.507 69.9915C114.591 70.3112 114.558 70.6612 114.44 70.9536ZM226.045 66.6831C227.135 66.857 228.22 67.0987 229.267 67.5049C229.791 67.7059 230.304 67.949 230.788 68.2625C231.271 68.5711 231.74 68.9603 232.059 69.5096C232.216 69.7836 232.308 70.1165 232.291 70.4437C232.276 70.7732 232.144 71.0773 231.963 71.3123C231.599 71.7868 231.101 72.0582 230.605 72.2634C231.023 71.9284 231.421 71.5476 231.629 71.1071C231.729 70.8874 231.773 70.6633 231.743 70.4538C231.715 70.2445 231.615 70.0568 231.481 69.8821C231.205 69.5348 230.78 69.2737 230.338 69.0549C229.893 68.8358 229.407 68.6776 228.92 68.5286C226.945 67.9702 224.841 67.821 222.764 67.8228C220.689 67.8356 218.578 68.0127 216.632 68.6428C216.147 68.7965 215.678 68.9904 215.256 69.2376C214.839 69.4824 214.458 69.7944 214.294 70.18C214.207 70.3702 214.189 70.581 214.234 70.798C214.285 71.0128 214.395 71.2321 214.546 71.4321C214.856 71.8312 215.28 72.1684 215.727 72.4674C215.22 72.2879 214.716 72.0556 214.287 71.6735C214.075 71.4822 213.88 71.2472 213.759 70.9536C213.64 70.6612 213.607 70.3112 213.692 69.9915C213.771 69.6707 213.94 69.3913 214.132 69.154C214.326 68.9168 214.546 68.7137 214.777 68.5347C215.246 68.1853 215.75 67.9147 216.264 67.6868C217.3 67.2434 218.377 66.9593 219.464 66.7676C220.552 66.5721 221.652 66.4659 222.752 66.4555C223.852 66.442 224.955 66.5097 226.045 66.6831ZM109.84 70.5985V70.897C109.669 73.0181 108.114 74.7508 106.083 75.1967C107.857 74.5538 109.169 72.8405 109.326 70.7801V70.4891C109.5 70.5231 109.672 70.56 109.84 70.5985ZM100.272 70.9801L100.236 70.6896C100.595 70.5972 100.971 70.5165 101.362 70.4456L101.413 70.9801C101.459 71.5924 101.592 72.1697 101.796 72.6931C101.961 72.4339 102.249 72.2622 102.578 72.2622C103.091 72.2622 103.509 72.6788 103.509 73.1926C103.509 73.6849 103.125 74.0841 102.642 74.1172C103.27 74.8432 104.087 75.2925 104.983 75.309C102.525 75.2742 100.508 73.3856 100.272 70.9801ZM159.997 68.4733V68.7647C160.154 70.8242 161.466 72.5375 163.24 73.1817C161.209 72.7345 159.654 71.0032 159.483 68.8815V68.5825C159.651 68.5438 159.823 68.5073 159.997 68.4733ZM169.088 68.6733L169.051 68.9638C168.815 71.371 166.798 73.2579 164.34 73.294C165.237 73.2763 166.053 72.8277 166.682 72.1017C166.198 72.0683 165.815 71.6692 165.815 71.1763C165.815 70.6633 166.231 70.2459 166.746 70.2459C167.075 70.2459 167.363 70.4185 167.528 70.6768C167.732 70.1534 167.865 69.5762 167.91 68.9638L167.961 68.4298C168.352 68.4999 168.729 68.5817 169.088 68.6733ZM227.963 70.6896L227.927 70.9801C227.691 73.3856 225.673 75.2742 223.215 75.309C224.111 75.2925 224.928 74.8432 225.557 74.1172C225.073 74.0841 224.69 73.6849 224.69 73.1926C224.69 72.6788 225.107 72.2622 225.621 72.2622C225.949 72.2622 226.238 72.4339 226.403 72.6931C226.607 72.1697 226.74 71.5924 226.786 70.9801L226.836 70.4456C227.227 70.5165 227.603 70.5972 227.963 70.6896ZM218.358 70.897V70.5985C218.527 70.56 218.699 70.5231 218.873 70.4891V70.7801C219.03 72.8405 220.342 74.5538 222.116 75.1967C220.085 74.7508 218.529 73.0181 218.358 70.897ZM229.486 87.35C229.383 87.3819 229.282 87.414 229.178 87.4451C229.045 87.4852 228.911 87.524 228.778 87.5635C228.677 87.5927 228.578 87.6227 228.477 87.6512C228.338 87.6899 228.198 87.7279 228.059 87.7667C227.959 87.7932 227.861 87.8211 227.761 87.8476C227.615 87.8864 227.466 87.9238 227.318 87.9618C227.225 87.9849 227.133 88.0093 227.039 88.0325C226.88 88.072 226.72 88.1092 226.56 88.1467C226.475 88.1671 226.391 88.1875 226.306 88.2067C226.124 88.2481 225.941 88.2868 225.758 88.3261C225.694 88.3392 225.631 88.3541 225.568 88.367C225.072 88.4703 224.572 88.5649 224.069 88.6485C223.821 88.3426 223.509 88.0638 223.153 87.8081L223.082 87.3126C226.882 86.7552 230.711 85.5879 234.236 83.9837C235.112 83.5798 235.969 83.1454 236.763 82.6786C237.159 82.4468 237.541 82.2046 237.883 81.9627C237.891 81.9566 237.899 81.9504 237.907 81.9443C237.83 81.8926 237.747 81.8403 237.662 81.7893C237.329 81.5867 236.946 81.3883 236.544 81.2C235.381 80.6629 234.08 80.2088 232.736 79.8057C228.505 83.9192 222.36 85.7533 220.084 86.3186C219.782 86.2122 219.485 86.1129 219.199 86.0218C219.138 86.0027 219.072 85.9835 219.011 85.9639C219.007 85.9626 219.004 85.9612 219 85.9605C218.964 85.9495 218.928 85.9386 218.893 85.9278C225.784 83.2665 228.453 79.695 229.023 78.8248C227.766 78.5306 226.495 78.2599 225.215 78.0117C221.65 77.3239 218.03 76.7814 214.392 76.3183L214.734 76.5775C213.43 78.0015 211.997 79.2305 210.495 80.3455C209.743 80.9002 208.971 81.4236 208.176 81.9056C207.38 82.3854 206.562 82.8315 205.709 83.1794C206.482 82.6791 207.19 82.0995 207.87 81.4916C208.549 80.8824 209.194 80.2393 209.811 79.5752C210.829 78.4753 211.775 77.3131 212.595 76.0995C211.528 75.9723 210.46 75.852 209.39 75.7373C209.489 75.8045 209.584 75.8765 209.675 75.9561C208.156 78.2661 204.864 81.3761 201.656 82.8703C201.485 82.8512 201.31 82.8329 201.136 82.8145C201.119 82.8124 201.103 82.8103 201.087 82.809C200.449 82.7404 199.803 82.6738 199.148 82.6098C202.644 80.2284 205.091 76.1824 205.26 75.326C202.195 75.0397 199.122 74.7983 196.045 74.5931C196.047 74.6201 196.048 74.6496 196.049 74.6772C193.02 74.4632 189.992 74.2851 186.961 74.1382C183.182 73.9635 179.398 73.8384 175.617 73.857C179.387 74.1329 183.14 74.5503 186.886 75.018C189.857 75.3939 192.826 75.8032 195.785 76.2442C195.759 76.3008 195.731 76.3579 195.701 76.4163C193.484 76.3552 191.27 76.3034 189.054 76.2716C186.209 76.2341 183.363 76.2164 180.521 76.2817C183.354 76.5108 186.176 76.8215 188.996 77.1524C190.87 77.3755 192.743 77.6112 194.614 77.8553C194.514 77.9602 194.409 78.0656 194.3 78.1707C191.786 78.0865 189.278 78.0239 186.766 77.9859C184.043 77.9479 181.317 77.9349 178.595 78.0037C181.307 78.2286 184.009 78.5359 186.706 78.867C188.657 79.1084 190.606 79.3686 192.551 79.6384C192.427 79.7294 192.301 79.82 192.173 79.9098C189.604 79.8084 187.044 79.7398 184.48 79.6989C181.875 79.6615 179.27 79.6528 176.67 79.7268C179.261 79.9472 181.841 80.2489 184.417 80.5792C186.223 80.814 188.028 81.0681 189.829 81.3318C189.509 81.4977 189.188 81.6533 188.866 81.7975C182.905 81.4297 176.506 81.1971 169.875 81.1116C169.838 81.1116 169.801 81.1108 169.763 81.1108C169.326 81.1047 168.889 81.1 168.449 81.0951C168.349 81.0946 168.247 81.0938 168.147 81.0925C167.77 81.089 167.393 81.0864 167.014 81.0843C166.807 81.083 166.599 81.0824 166.39 81.0811C166.115 81.0798 165.84 81.0776 165.563 81.0768C165.076 81.0755 164.588 81.0742 164.099 81.0742C163.611 81.0742 163.123 81.0755 162.636 81.0768C162.359 81.0776 162.084 81.0798 161.808 81.0811C161.6 81.0824 161.391 81.083 161.184 81.0843C160.806 81.0864 160.429 81.089 160.051 81.0925C159.951 81.0938 159.85 81.0946 159.749 81.0951C159.31 81.1 158.872 81.1047 158.435 81.1108C158.398 81.1108 158.36 81.1116 158.324 81.1116C147.148 81.2563 136.628 81.8171 127.764 82.7397C127.478 82.6173 127.179 82.4861 126.871 82.3462C127.921 82.14 128.974 81.9483 130.031 81.7717C132.306 81.3902 134.594 81.0585 136.893 80.7922C134.579 80.7648 132.261 80.8036 129.941 80.8934C128.175 80.9621 126.41 81.0673 124.641 81.2218C124.391 81.0798 124.147 80.9334 123.912 80.7853C125.48 80.4515 127.059 80.1504 128.645 79.8771C130.942 79.4828 133.251 79.1333 135.57 78.8444C133.232 78.8404 130.892 78.8962 128.55 78.9995C126.442 79.0932 124.332 79.2366 122.218 79.4448C122.1 79.3142 121.993 79.1777 121.898 79.0369C123.672 78.6479 125.461 78.2992 127.259 77.9824C129.577 77.5746 131.907 77.2082 134.246 76.8961C131.885 76.9152 129.523 76.9885 127.16 77.1057C125.281 77.1994 123.402 77.3271 121.52 77.5018C121.544 77.3876 121.58 77.2735 121.631 77.1593C122.729 76.9452 123.836 76.7479 124.944 76.557C126.593 76.2735 128.248 76.0132 129.905 75.761C133.219 75.2559 136.543 74.7917 139.87 74.3552C136.517 74.498 133.163 74.6698 129.811 74.8833C128.134 74.9895 126.457 75.105 124.779 75.2436C124.538 75.2633 124.298 75.2838 124.057 75.3048C124.148 75.2681 124.242 75.2319 124.339 75.1967C121.022 75.4912 117.713 75.8337 114.416 76.2416C113.581 76.3457 112.746 76.455 111.912 76.5679C111.873 76.5836 111.835 76.5993 111.793 76.6146C105.837 78.9137 113.396 83.0748 115.998 84.3624C115.056 84.535 114.166 84.7124 113.327 84.8945C109.155 83.5955 102.427 80.737 104.253 77.7746C103.607 77.8927 102.962 78.0138 102.321 78.1415C100.335 78.5393 98.3665 78.9838 96.4583 79.5154C95.6652 79.7364 94.8886 79.9783 94.129 80.2362C92.835 80.7669 91.6151 81.3543 90.4977 82.0014C90.9598 82.3034 91.483 82.6045 92.0096 82.8852C92.8446 83.3284 93.7234 83.7431 94.6192 84.1292C98.1791 85.6465 101.987 86.7878 105.759 87.354C105.107 87.7231 104.533 88.1509 104.129 88.6485C103.626 88.5649 103.126 88.4703 102.631 88.367C102.568 88.3541 102.506 88.3397 102.443 88.3269C102.259 88.2874 102.075 88.2481 101.892 88.2067C101.807 88.1875 101.724 88.1671 101.639 88.1467C101.478 88.1092 101.318 88.072 101.159 88.0325C101.066 88.0093 100.974 87.9849 100.881 87.9618C100.733 87.9238 100.584 87.8864 100.437 87.8476C100.338 87.8211 100.24 87.794 100.142 87.7667C100.001 87.7287 99.8605 87.6899 99.7218 87.6512C99.6213 87.6227 99.5227 87.5927 99.4231 87.564C99.2886 87.524 99.1534 87.486 99.0197 87.4451C98.9178 87.414 98.8169 87.3826 98.7158 87.3514C98.586 87.3113 98.4567 87.2712 98.3283 87.2302C98.2269 87.1979 98.1265 87.1644 98.0257 87.1317C97.8999 87.0911 97.7746 87.0494 97.6501 87.0075C97.5501 86.974 97.4508 86.9395 97.3512 86.9055C97.2286 86.8633 97.1062 86.8211 96.9855 86.7783C96.8867 86.7435 96.789 86.7077 96.6914 86.6723C96.5728 86.6301 96.4544 86.5866 96.3376 86.5439C96.2397 86.5072 96.1433 86.4703 96.0467 86.4344C95.932 86.3909 95.8176 86.3473 95.7048 86.3033C95.6098 86.2671 95.5153 86.2297 95.4216 86.1923C95.3104 86.1481 95.1992 86.1041 95.0898 86.0598C94.9969 86.0218 94.9051 85.9843 94.8129 85.9464C94.7057 85.902 94.599 85.8571 94.4934 85.8131C94.4031 85.7748 94.3145 85.7369 94.2259 85.6989C94.1216 85.654 94.018 85.6091 93.9158 85.5635C93.8293 85.5263 93.7436 85.488 93.6584 85.4493C93.5575 85.4044 93.4577 85.3595 93.359 85.3141C93.2762 85.2767 93.1947 85.2387 93.1135 85.2005C93.0155 85.155 92.9187 85.1088 92.8225 85.064C92.7448 85.0265 92.667 84.9899 92.5903 84.9524C92.4964 84.9068 92.4037 84.8606 92.3119 84.8151C92.2367 84.7777 92.1625 84.7411 92.0892 84.7041C92 84.6587 91.9119 84.6139 91.8251 84.569C91.754 84.5324 91.6831 84.4957 91.6135 84.4588C91.5284 84.4139 91.4453 84.3698 91.3624 84.325C91.2959 84.2889 91.2287 84.2535 91.1636 84.2177C91.083 84.1734 91.0042 84.1292 90.9258 84.0849C90.8637 84.0504 90.8013 84.015 90.7411 83.9803C90.665 83.9367 90.5914 83.8931 90.5181 83.8505C90.46 83.8165 90.4017 83.7819 90.3456 83.7492C90.2742 83.7057 90.2063 83.6643 90.1384 83.6212C90.0847 83.5889 90.0311 83.5554 89.9796 83.5227C89.9132 83.4813 89.8503 83.4399 89.7869 83.399C89.7392 83.3679 89.69 83.3358 89.6438 83.3053C89.5828 83.2652 89.5252 83.2243 89.4674 83.1842C89.4243 83.1544 89.38 83.1253 89.3391 83.0958C89.2834 83.0565 89.2319 83.0177 89.1796 82.9797C89.1419 82.9518 89.1023 82.9232 89.0665 82.8953C89.0169 82.8573 88.972 82.8206 88.9264 82.7845C88.8929 82.758 88.8582 82.7309 88.8274 82.7051C88.7836 82.6691 88.7451 82.6342 88.7053 82.5989C88.6779 82.5745 88.6482 82.5501 88.623 82.527C88.5845 82.4909 88.5522 82.4569 88.5182 82.4229C88.4972 82.4024 88.4733 82.3806 88.4544 82.3605C88.4205 82.3243 88.3926 82.2903 88.3645 82.2556C88.3512 82.2399 88.3348 82.2224 88.3226 82.2067C88.2848 82.1584 88.2532 82.1116 88.2286 82.0681C88.2315 82.0564 88.2352 82.0436 88.2392 82.0293C88.3522 81.6507 89.0398 80.4631 93.1856 78.9894C93.1968 78.9846 93.2093 78.9804 93.221 78.9764C93.4182 78.9063 93.6236 78.8365 93.837 78.7642C94.2973 78.6113 94.796 78.4548 95.3353 78.2966C95.5652 78.2286 95.8004 78.1612 96.0456 78.0926C96.4884 77.9697 96.9573 77.8447 97.4513 77.7188C97.4839 77.7113 97.5155 77.7023 97.5482 77.6944C98.5767 77.4339 99.7205 77.1715 100.988 76.9065C101.055 76.8927 101.122 76.8786 101.19 76.8651C101.634 76.7732 102.093 76.6808 102.568 76.5883C103.335 76.903 104.174 77.0778 105.052 77.0778C106.712 77.0778 108.228 76.4577 109.386 75.4388C109.517 75.4197 109.646 75.4001 109.78 75.3804C117.483 74.2585 126.538 73.4047 136.413 72.85C136.994 72.8174 137.577 72.7863 138.164 72.7555C141.096 72.6026 144.096 72.4761 147.151 72.3768C150.96 72.2526 154.854 72.1711 158.806 72.1323C159.985 73.8971 161.994 75.062 164.27 75.062C166.547 75.062 168.555 73.8984 169.733 72.1357C188.138 72.328 205.253 73.4632 218.418 75.3804C218.552 75.4001 218.681 75.4197 218.812 75.4388C219.97 76.4577 221.487 77.0778 223.146 77.0778C224.025 77.0778 224.863 76.903 225.63 76.5883C226.134 76.6869 226.623 76.784 227.092 76.8821C227.108 76.8853 227.124 76.8887 227.139 76.8921C228.275 77.1279 229.31 77.3632 230.253 77.5959C230.476 77.6508 230.693 77.7052 230.905 77.7597C231.118 77.8139 231.326 77.8683 231.529 77.9227C232.211 78.1049 232.838 78.2849 233.414 78.4618C233.437 78.4692 233.462 78.4761 233.484 78.4828C239.019 80.1926 239.84 81.6193 239.961 82.0341C239.964 82.0463 239.967 82.0577 239.969 82.0681C239.945 82.1116 239.914 82.1584 239.876 82.2067C239.863 82.2229 239.846 82.242 239.831 82.259C239.804 82.2925 239.777 82.3249 239.744 82.3605C239.724 82.3814 239.699 82.4045 239.676 82.4268C239.644 82.4595 239.613 82.4922 239.576 82.5262C239.549 82.5514 239.517 82.578 239.488 82.6037C239.45 82.6372 239.414 82.6703 239.371 82.7043C239.338 82.7315 239.301 82.7606 239.266 82.7893C239.223 82.8241 239.18 82.8586 239.134 82.8947C239.094 82.9244 239.051 82.9553 239.01 82.985C238.962 83.0211 238.913 83.0573 238.861 83.0944C238.817 83.1266 238.769 83.1584 238.721 83.1911C238.667 83.2285 238.614 83.2657 238.557 83.3032C238.508 83.3371 238.455 83.3711 238.402 83.4051C238.343 83.4433 238.284 83.4821 238.222 83.5222C238.167 83.5562 238.109 83.5915 238.052 83.6268C237.987 83.6662 237.923 83.7062 237.857 83.7463C237.796 83.7825 237.734 83.8191 237.671 83.856C237.603 83.8961 237.533 83.9367 237.461 83.9781C237.397 84.015 237.33 84.053 237.264 84.0897C237.19 84.1311 237.116 84.1734 237.039 84.2148C236.97 84.253 236.899 84.291 236.827 84.3297C236.749 84.3719 236.67 84.4139 236.59 84.4569C236.516 84.4949 236.441 84.5342 236.365 84.5729C236.282 84.616 236.2 84.6579 236.115 84.7015C236.037 84.7411 235.958 84.7798 235.88 84.8192C235.792 84.8618 235.704 84.9062 235.614 84.949C235.533 84.9886 235.451 85.027 235.369 85.0674C235.277 85.1102 235.184 85.1542 235.091 85.1978C235.006 85.2379 234.921 85.2775 234.834 85.3168C234.739 85.3603 234.642 85.4038 234.546 85.4474C234.457 85.4867 234.368 85.5268 234.277 85.5664C234.179 85.6096 234.079 85.6526 233.978 85.6968C233.887 85.7355 233.794 85.7756 233.701 85.8149C233.598 85.8579 233.495 85.9015 233.391 85.9442C233.296 85.9835 233.201 86.0218 233.106 86.0611C232.999 86.1041 232.89 86.1474 232.782 86.1904C232.685 86.2284 232.588 86.2671 232.49 86.3046C232.38 86.3473 232.269 86.3895 232.157 86.4323C232.058 86.4689 231.959 86.5072 231.858 86.5443C231.744 86.5866 231.628 86.6288 231.512 86.671C231.412 86.7069 231.312 86.7435 231.211 86.7796C231.093 86.8211 230.972 86.8625 230.851 86.9041C230.751 86.9387 230.649 86.974 230.547 87.008C230.424 87.0494 230.3 87.0903 230.176 87.1304C230.074 87.1644 229.972 87.1979 229.869 87.2311C229.742 87.2712 229.614 87.3107 229.486 87.35ZM260.458 80.9409V81.2319C260.614 83.2917 261.926 85.0047 263.7 85.6484C261.669 85.2017 260.114 83.4699 259.943 81.3488V81.0497C260.111 81.011 260.283 80.9743 260.458 80.9409ZM269.547 81.1408L269.511 81.4318C269.275 83.8374 267.258 85.7259 264.8 85.7607C265.697 85.7437 266.514 85.295 267.141 84.569C266.658 84.5358 266.275 84.1367 266.275 83.6443C266.275 83.13 266.691 82.7131 267.205 82.7131C267.535 82.7131 267.822 82.8857 267.988 83.1441C268.191 82.6215 268.325 82.0436 268.371 81.4318L268.421 80.8968C268.812 80.9674 269.188 81.049 269.547 81.1408ZM273.327 80.9055C273.299 80.6955 273.2 80.5081 273.066 80.3338C272.789 79.986 272.365 79.7255 271.923 79.5067C271.478 79.2876 270.992 79.1286 270.506 78.9804C268.53 78.4217 266.426 78.2727 264.348 78.274C262.274 78.2871 260.163 78.4644 258.216 79.094C257.731 79.2483 257.262 79.4413 256.84 79.6894C256.424 79.9342 256.043 80.2462 255.878 80.6315C255.791 80.8214 255.773 81.0327 255.818 81.2497C255.87 81.4637 255.979 81.6838 256.131 81.8838C256.44 82.2821 256.864 82.6202 257.312 82.9191C256.805 82.7397 256.3 82.5073 255.872 82.1252C255.659 81.934 255.464 81.6982 255.343 81.4045C255.224 81.1121 255.193 80.763 255.276 80.4427C255.356 80.1225 255.525 79.8424 255.716 79.6057C255.91 79.3678 256.13 79.1655 256.362 78.986C256.831 78.637 257.334 78.3667 257.849 78.1389C258.884 77.6944 259.962 77.4102 261.05 77.219C262.136 77.0233 263.236 76.9179 264.337 76.907C265.437 76.8935 266.539 76.9615 267.629 77.1348C268.719 77.3082 269.805 77.5502 270.851 77.9567C271.376 78.158 271.888 78.4007 272.373 78.714C272.857 79.0218 273.324 79.4121 273.643 79.9613C273.8 80.2353 273.893 80.5678 273.876 80.8955C273.86 81.225 273.728 81.5282 273.548 81.7635C273.183 82.2386 272.686 82.51 272.189 82.7145C272.608 82.3801 273.005 81.9993 273.213 81.5588C273.313 81.3392 273.357 81.1143 273.327 80.9055ZM155.411 69.6577C155.2 69.4662 155.004 69.231 154.884 68.9373C154.764 68.6449 154.732 68.2954 154.816 67.9755C154.896 67.6542 155.065 67.3754 155.256 67.1385C155.451 66.9009 155.671 66.6977 155.903 66.5185C156.371 66.1698 156.874 65.8989 157.389 65.6708C158.424 65.2271 159.502 64.9433 160.59 64.7512C161.677 64.5561 162.776 64.4499 163.876 64.4397C164.976 64.4259 166.079 64.4937 167.17 64.6668C168.259 64.841 169.345 65.0832 170.392 65.4895C170.916 65.6908 171.428 65.9334 171.913 66.2468C172.396 66.5551 172.864 66.9446 173.183 67.4935C173.341 67.7673 173.433 68.1003 173.416 68.4282C173.4 68.7578 173.268 69.061 173.088 69.2963C172.723 69.7705 172.226 70.042 171.729 70.2472C172.148 69.9126 172.546 69.5321 172.753 69.0915C172.854 68.872 172.897 68.6468 172.867 68.4383C172.839 68.2286 172.74 68.0405 172.606 67.8666C172.329 67.5187 171.904 67.258 171.463 67.0395C171.018 66.8206 170.533 66.661 170.045 66.5126C168.07 65.9542 165.966 65.8054 163.889 65.8068C161.813 65.8192 159.703 65.9967 157.757 66.6265C157.272 66.7805 156.803 66.9739 156.381 67.2221C155.964 67.467 155.582 67.7785 155.419 68.164C155.332 68.3539 155.313 68.565 155.359 68.7822C155.41 68.9965 155.519 69.2166 155.671 69.4166C155.981 69.8149 156.405 70.1534 156.852 70.4511C156.344 70.2717 155.841 70.0398 155.411 69.6577ZM59.8281 81.4318C59.8738 82.0436 60.0073 82.6215 60.2106 83.1441C60.3763 82.8857 60.6637 82.7131 60.9934 82.7131C61.5072 82.7131 61.9237 83.13 61.9237 83.6443C61.9237 84.1367 61.5404 84.5358 61.0565 84.569C61.6853 85.295 62.5023 85.7437 63.3986 85.7607C60.9408 85.7259 58.9233 83.8374 58.6871 81.4318L58.651 81.1408C59.0106 81.049 59.3865 80.9674 59.7777 80.8968L59.8281 81.4318ZM67.741 81.2319V80.9409C67.9157 80.9743 68.0871 81.011 68.2559 81.0497V81.3488C68.0844 83.4699 66.5293 85.2017 64.4986 85.6484C66.2721 85.0047 67.5844 83.2917 67.741 81.2319ZM72.3198 80.6315C72.1558 80.2462 71.7747 79.9342 71.3579 79.6894C70.9362 79.4413 70.4672 79.2483 69.9822 79.094C68.0356 78.4644 65.925 78.2871 63.8499 78.274C61.7729 78.2727 59.6686 78.4217 57.6933 78.9804C57.2063 79.1286 56.7206 79.2876 56.2757 79.5067C55.8338 79.7255 55.4091 79.986 55.1328 80.3338C54.999 80.5081 54.8995 80.6955 54.8708 80.9055C54.8414 81.1143 54.8851 81.3392 54.9852 81.5588C55.1928 81.9993 55.5906 82.3801 56.0095 82.7145C55.5129 82.51 55.0149 82.2386 54.6505 81.7635C54.4703 81.5282 54.3383 81.225 54.323 80.8955C54.3057 80.5678 54.3978 80.2353 54.5552 79.9613C54.8743 79.4121 55.3425 79.0218 55.825 78.714C56.3105 78.4007 56.8228 78.158 57.3467 77.9567C58.393 77.5502 59.4794 77.3082 60.569 77.1348C61.6598 76.9615 62.7624 76.8935 63.8618 76.907C64.962 76.9179 66.0619 77.0233 67.1491 77.219C68.2368 77.4102 69.3142 77.6944 70.3496 78.1389C70.8639 78.3667 71.3677 78.637 71.8365 78.986C72.0677 79.1655 72.288 79.3678 72.4823 79.6057C72.6736 79.8424 72.8432 80.1225 72.9223 80.4427C73.0065 80.763 72.9744 81.1121 72.8546 81.4045C72.7344 81.6982 72.5391 81.934 72.327 82.1252C71.8978 82.5073 71.394 82.7397 70.8865 82.9191C71.3337 82.6202 71.7582 82.2821 72.0674 81.8838C72.2195 81.6838 72.3286 81.4637 72.3798 81.2497C72.4255 81.0327 72.4069 80.8214 72.3198 80.6315ZM95.5063 89.985C95.3218 89.6435 94.8045 89.426 94.3278 89.2827C93.3399 88.9855 92.2625 88.9088 91.2066 88.9082C90.1495 88.9122 89.0767 88.9685 88.0736 89.233C87.5854 89.365 87.07 89.5437 86.7809 89.8535C86.6421 90.0038 86.5814 90.1902 86.6732 90.4178C86.7616 90.6417 86.9551 90.8501 87.1621 91.0387C86.8969 90.9476 86.6283 90.8204 86.4224 90.5721C86.3196 90.4484 86.2405 90.2827 86.2286 90.0992C86.2217 89.9183 86.2592 89.7266 86.3465 89.5763C86.5155 89.2712 86.761 89.0487 87.0156 88.8822C87.2709 88.7136 87.5374 88.5702 87.8124 88.4655C88.3597 88.2407 88.9272 88.1078 89.496 88.0107C90.0656 87.9129 90.6413 87.876 91.2154 87.883C91.7898 87.8869 92.3641 87.9488 92.9317 88.0585C93.4994 88.1658 94.0618 88.3208 94.6041 88.5654C94.8729 88.6912 95.1357 88.8447 95.3842 89.0317C95.6209 89.2317 95.8667 89.4818 95.9583 89.8448C95.9782 89.9332 95.9761 90.0317 95.9777 90.121C95.9679 90.2121 95.9442 90.3002 95.91 90.3804C95.8394 90.5416 95.7284 90.6648 95.6122 90.7625C95.3767 90.9577 95.1073 91.0649 94.839 91.1433C95.0625 90.9752 95.2719 90.7891 95.4176 90.5811C95.5615 90.3695 95.6048 90.148 95.5063 89.985ZM222.281 90.9189C222.265 91.0358 222.246 91.1534 222.22 91.2737C222.207 91.3411 222.19 91.4104 222.173 91.4797C222.147 91.5886 222.117 91.6986 222.084 91.8096C222.064 91.8794 222.041 91.9508 222.018 92.0222C221.978 92.1433 221.932 92.2663 221.885 92.3887C221.862 92.4476 221.841 92.5068 221.816 92.5666C221.661 92.9421 221.474 93.3234 221.254 93.7039C221.233 93.74 221.211 93.7754 221.19 93.8101C220.004 95.8134 217.964 97.818 215.373 99.0647C215.087 98.6746 214.722 98.3016 214.276 97.9439C215.318 97.4898 216.311 96.882 217.21 96.1554C218.226 95.345 219.098 94.3566 219.77 93.3144C220.09 92.7923 220.384 92.2546 220.559 91.7325C220.668 91.4232 220.751 91.1175 220.804 90.8339C220.787 90.8239 220.773 90.8135 220.756 90.8026C220.557 90.6762 220.293 90.5403 220.01 90.4104C219.731 90.2792 219.419 90.155 219.102 90.0352C218.856 89.9428 218.599 89.857 218.342 89.7715C216.744 93.4286 213.882 95.5061 211.953 96.5524C211.812 96.4871 211.667 96.4217 211.519 96.3572C211.444 96.3253 211.368 96.2919 211.292 96.2593C211.231 96.2343 211.169 96.2096 211.109 96.1838C210.978 96.1302 210.844 96.0771 210.708 96.0243C210.688 96.0165 210.67 96.0099 210.65 96.0017C214.133 93.1976 215.068 89.8482 215.27 88.9114C215.155 88.8836 215.041 88.8543 214.926 88.8277C213.467 88.4895 211.974 88.2006 210.47 87.9401C209.295 87.7388 208.11 87.5587 206.922 87.3888C206.112 88.626 205.158 89.6993 204.126 90.6648C203.573 91.1778 202.996 91.6585 202.391 92.0977C201.786 92.5326 201.152 92.9344 200.48 93.2355C201.063 92.787 201.57 92.265 202.044 91.7177C202.515 91.1691 202.947 90.5907 203.344 89.9951C203.957 89.0718 204.491 88.1012 204.902 87.1134C204 86.9966 203.095 86.8864 202.189 86.7823C201.353 88.9074 199.085 91.7326 196.479 93.0337C196.356 93.0188 196.231 93.0045 196.106 92.9896C195.981 92.9753 195.855 92.9604 195.729 92.946C195.555 92.9264 195.38 92.9065 195.204 92.8868C195.067 92.8719 194.931 92.8563 194.792 92.8414C194.631 92.8244 194.465 92.8074 194.302 92.7897C194.257 92.7849 194.212 92.7801 194.167 92.7753C196.626 90.7843 197.843 87.4438 197.949 86.3412C192.909 85.8632 187.839 85.5356 182.763 85.3059C180.982 85.2257 179.2 85.1625 177.418 85.1075C177.329 85.1094 177.241 85.1115 177.153 85.1155C178.187 85.2148 179.212 85.3725 180.238 85.5295C181.264 85.6898 182.288 85.8606 183.311 86.0345C184.71 86.2746 186.108 86.5247 187.504 86.7775C187.502 86.8619 187.501 86.9462 187.494 87.0332C186.074 86.9844 184.654 86.94 183.234 86.9055C182.221 86.8824 181.207 86.8641 180.194 86.8532C179.18 86.8471 178.165 86.841 177.153 86.8912C178.16 86.9878 179.159 87.1408 180.158 87.2929C181.156 87.4499 182.153 87.615 183.149 87.7845C184.49 88.0142 185.828 88.2528 187.166 88.4956C187.138 88.5824 187.107 88.67 187.075 88.7579C185.741 88.7178 184.406 88.6817 183.071 88.6551C182.085 88.6369 181.099 88.6225 180.111 88.6177C179.125 88.6159 178.137 88.6146 177.153 88.666C178.133 88.7619 179.104 88.9088 180.077 89.0577C181.048 89.2094 182.019 89.3697 182.988 89.5341C184.153 89.7333 185.317 89.9401 186.479 90.1494C186.425 90.2588 186.37 90.3669 186.315 90.4744C185.179 90.4471 184.044 90.4226 182.907 90.4056C181.949 90.3913 180.989 90.3825 180.029 90.382C179.07 90.3833 178.11 90.3881 177.153 90.4409C178.105 90.5354 179.051 90.6775 179.996 90.8222C180.941 90.9691 181.884 91.1242 182.827 91.284C183.749 91.4417 184.671 91.6027 185.593 91.7665C185.53 91.8706 185.47 91.9705 185.409 92.0676C183.017 91.9224 180.502 91.804 177.876 91.7124C177.876 91.7124 177.875 91.7124 177.874 91.7124C177.491 91.6993 177.105 91.6863 176.716 91.6749C176.699 91.6741 176.681 91.6736 176.664 91.6728C176.291 91.6614 175.916 91.6505 175.539 91.6396C175.502 91.6388 175.466 91.6374 175.429 91.6362C175.068 91.6258 174.705 91.6171 174.34 91.6083C174.285 91.6061 174.231 91.6056 174.176 91.604C173.828 91.5952 173.48 91.5878 173.128 91.5796C173.05 91.5782 172.972 91.5769 172.893 91.5748C172.562 91.5682 172.228 91.5621 171.893 91.5551C171.792 91.5538 171.691 91.5517 171.589 91.5498C171.277 91.5442 170.963 91.5389 170.647 91.5347C170.514 91.5328 170.379 91.5307 170.244 91.5294C169.954 91.5246 169.664 91.5207 169.372 91.5172C169.217 91.5151 169.061 91.5137 168.905 91.5116C168.631 91.5097 168.356 91.5063 168.08 91.5041C167.889 91.502 167.697 91.5007 167.506 91.4994C167.262 91.4975 167.02 91.4954 166.775 91.4941C166.528 91.4927 166.279 91.4914 166.031 91.4906C165.835 91.4898 165.641 91.4885 165.444 91.488C164.997 91.4867 164.55 91.4859 164.099 91.4859C163.649 91.4859 163.201 91.4867 162.754 91.488C162.558 91.4885 162.364 91.4898 162.168 91.4906C161.919 91.4914 161.671 91.4927 161.424 91.4941C161.179 91.4954 160.937 91.4975 160.694 91.4994C160.502 91.5007 160.31 91.502 160.119 91.5041C159.843 91.5063 159.568 91.5097 159.294 91.5116C159.138 91.5137 158.982 91.5151 158.826 91.5172C158.534 91.5207 158.244 91.5246 157.955 91.5294C157.82 91.5307 157.685 91.5328 157.551 91.5347C157.236 91.5389 156.922 91.5442 156.61 91.5498C156.509 91.5517 156.407 91.5538 156.305 91.5551C155.97 91.5621 155.638 91.5682 155.306 91.5748C155.228 91.5764 155.149 91.5782 155.07 91.5796C154.72 91.5878 154.371 91.5952 154.023 91.604C153.968 91.6056 153.913 91.6061 153.857 91.6083C153.493 91.6171 153.131 91.6258 152.771 91.6362C152.733 91.6374 152.696 91.6388 152.659 91.6396C152.282 91.6505 151.908 91.6614 151.536 91.6728C151.518 91.6736 151.5 91.6741 151.482 91.6749C151.094 91.6863 150.708 91.6993 150.325 91.7124C150.324 91.7124 150.322 91.7124 150.321 91.7129C145.271 91.8884 140.631 92.1648 136.478 92.5382C136.431 92.543 136.383 92.5469 136.337 92.5512C136.11 92.5714 135.888 92.5926 135.665 92.6136C135.557 92.6237 135.448 92.634 135.341 92.6436C135.157 92.662 134.976 92.6794 134.795 92.6978C134.65 92.7121 134.505 92.7273 134.361 92.7414C134.206 92.757 134.052 92.7734 133.898 92.7891C133.734 92.8067 133.568 92.8244 133.405 92.8414C133.267 92.8563 133.132 92.8712 132.995 92.8868C132.819 92.9065 132.644 92.9264 132.47 92.946C132.343 92.9604 132.218 92.9753 132.093 92.9896C131.915 93.0114 131.738 93.0316 131.563 93.0528C131.438 93.0685 131.314 93.0834 131.19 93.0982C131.021 93.12 130.853 93.1412 130.685 93.1622C130.556 93.1792 130.428 93.1954 130.3 93.2118C130.144 93.2328 129.989 93.2533 129.835 93.2738C129.697 93.2926 129.56 93.3117 129.424 93.3301C129.392 93.3348 129.359 93.3396 129.326 93.3436C129.267 93.2899 129.206 93.2323 129.145 93.1745C130.64 92.8481 132.138 92.5294 133.638 92.2235C134.666 92.0166 135.695 91.8149 136.726 91.6253C137.758 91.4423 138.79 91.2562 139.835 91.1521C138.784 91.1093 137.729 91.1486 136.678 91.1868C135.626 91.2301 134.575 91.2867 133.524 91.3485C131.635 91.4636 129.75 91.596 127.861 91.7421C127.844 91.7185 127.826 91.6954 127.808 91.6714C129.634 91.2562 131.466 90.853 133.3 90.4688C134.325 90.2569 135.35 90.0501 136.379 89.8565C137.408 89.6687 138.436 89.4784 139.48 89.3745C138.431 89.331 137.378 89.3759 136.329 89.4173C135.279 89.4661 134.23 89.5274 133.181 89.5947C131.113 89.7306 129.049 89.8875 126.979 90.0644C128.966 89.5954 130.963 89.144 132.962 88.7144C133.983 88.4969 135.006 88.2847 136.032 88.0869C137.058 87.8952 138.084 87.7016 139.125 87.5962C138.078 87.554 137.027 87.6023 135.979 87.6485C134.932 87.7016 133.884 87.7679 132.838 87.8402C130.882 87.9796 128.93 88.14 126.975 88.3161C126.981 88.2983 126.99 88.2807 126.997 88.2624C128.866 87.8115 130.744 87.3752 132.623 86.9591C133.642 86.7368 134.662 86.5207 135.684 86.3181C136.708 86.1224 137.731 85.9238 138.771 85.8178C137.798 85.7796 136.823 85.8226 135.85 85.8694C132.849 86.0903 129.854 86.3569 126.873 86.6832C123.8 87.0202 120.74 87.4241 117.728 87.9401C117.159 88.0386 116.591 88.1426 116.026 88.2516C116.214 90.9067 119.629 93.7326 121.166 94.876C120.564 95.0295 119.992 95.1893 119.451 95.3537C117.243 94.6686 114.013 92.6489 112.854 88.9305C111.545 89.246 110.256 89.6007 109.097 90.0352C108.779 90.155 108.468 90.2792 108.188 90.4104C107.905 90.5403 107.641 90.6762 107.443 90.8026C107.425 90.8135 107.411 90.8239 107.395 90.8339C107.447 91.1175 107.531 91.4232 107.639 91.7325C107.814 92.2546 108.109 92.7923 108.429 93.3144C109.1 94.3566 109.973 95.345 110.988 96.1554C111.887 96.882 112.88 97.4898 113.922 97.9439C113.477 98.3016 113.112 98.6746 112.826 99.0647C110.267 97.8344 108.249 95.8657 107.058 93.8916C107.014 93.8197 106.969 93.7474 106.927 93.6747C106.858 93.5545 106.796 93.4355 106.733 93.316C106.655 93.1643 106.582 93.014 106.513 92.8645C106.473 92.7761 106.431 92.6877 106.394 92.6C106.348 92.4907 106.309 92.3826 106.269 92.2745C106.244 92.2044 106.216 92.1343 106.193 92.0658C106.157 91.9577 106.125 91.8502 106.094 91.7434C106.074 91.6749 106.056 91.6056 106.038 91.5377C106.013 91.4349 105.989 91.3329 105.968 91.2322C105.953 91.1568 105.942 91.0833 105.93 91.0086C105.916 90.9181 105.901 90.827 105.891 90.7389C105.879 90.6239 105.875 90.5119 105.871 90.4008C105.87 90.3616 105.865 90.3206 105.864 90.2827L105.868 90.271L105.868 90.2705C105.873 90.2569 106.181 89.4281 109.545 88.3261C111.773 87.6049 115.214 86.7905 120.411 86.0231C120.429 86.0204 120.447 86.0175 120.465 86.0157C120.828 85.9612 121.2 85.9081 121.58 85.8553C121.623 85.8492 121.669 85.8436 121.713 85.8375C122.016 85.7947 122.327 85.7539 122.642 85.7116C122.756 85.6968 122.869 85.6811 122.985 85.6667C123.083 85.6532 123.182 85.6418 123.28 85.6288C123.534 85.5961 123.788 85.5635 124.045 85.5324C124.141 85.5199 124.239 85.5077 124.336 85.4962C124.594 85.465 124.852 85.4331 125.114 85.4026C125.212 85.3909 125.311 85.3794 125.41 85.3677C125.673 85.3364 125.938 85.3066 126.206 85.2767C126.299 85.2658 126.393 85.2557 126.487 85.2453C126.762 85.2148 127.038 85.1843 127.316 85.1542C127.406 85.1447 127.496 85.1359 127.586 85.1258C127.872 85.0958 128.158 85.0653 128.448 85.0361C128.528 85.027 128.61 85.0196 128.69 85.0117C128.991 84.9808 129.292 84.9511 129.598 84.9211C129.668 84.9145 129.74 84.9081 129.812 84.9014C130.128 84.8709 130.446 84.8401 130.766 84.8109C130.823 84.8056 130.881 84.8 130.939 84.796C131.275 84.7647 131.612 84.7342 131.952 84.705C131.995 84.7009 132.04 84.6967 132.084 84.6935C132.438 84.6622 132.793 84.6322 133.151 84.6022C133.186 84.5995 133.221 84.5969 133.255 84.5942C133.625 84.5637 133.997 84.5336 134.371 84.5045C134.387 84.5031 134.402 84.5018 134.418 84.5002C134.811 84.4697 135.205 84.4392 135.603 84.4099C135.605 84.4099 135.608 84.4099 135.61 84.4091C142.6 83.8913 150.318 83.5698 158.361 83.4656C158.479 83.4643 158.597 83.463 158.716 83.4617C159.073 83.4569 159.43 83.4529 159.789 83.4495C159.887 83.4482 159.986 83.4473 160.085 83.4465C160.462 83.4433 160.84 83.4399 161.219 83.4378C161.351 83.4372 161.484 83.4365 161.616 83.4357C161.963 83.4338 162.31 83.4316 162.657 83.4312C163.137 83.429 163.618 83.4282 164.099 83.4282C164.58 83.4282 165.061 83.429 165.541 83.4312C165.889 83.4316 166.235 83.4338 166.582 83.4357C166.715 83.4365 166.848 83.4372 166.98 83.4378C167.359 83.4399 167.736 83.4433 168.114 83.4465C168.213 83.4473 168.311 83.4482 168.411 83.4495C168.769 83.4529 169.125 83.4569 169.483 83.4617C169.601 83.463 169.719 83.4643 169.837 83.4656C177.875 83.569 185.588 83.8913 192.574 84.4086C192.582 84.4091 192.59 84.4091 192.598 84.4099C192.99 84.4392 193.378 84.4691 193.764 84.4989C193.786 84.501 193.808 84.5023 193.83 84.5045C194.199 84.5336 194.565 84.5629 194.93 84.5929C194.97 84.5961 195.01 84.599 195.05 84.6022C195.402 84.6317 195.751 84.6614 196.1 84.6919C196.149 84.6962 196.2 84.7002 196.249 84.705C196.583 84.7342 196.914 84.7642 197.245 84.7939C197.308 84.7994 197.372 84.8056 197.436 84.8109C197.749 84.8401 198.061 84.8701 198.372 84.9001C198.449 84.9075 198.527 84.9145 198.604 84.9219C198.903 84.9503 199.197 84.9803 199.492 85.01C199.579 85.0191 199.667 85.027 199.754 85.0361C200.037 85.0653 200.318 85.0945 200.598 85.1245C200.693 85.1346 200.79 85.1442 200.886 85.1542C201.158 85.1835 201.427 85.2134 201.696 85.2435C201.796 85.2544 201.897 85.2658 201.996 85.2767C202.257 85.3066 202.515 85.3359 202.773 85.3656C202.878 85.3786 202.984 85.3909 203.089 85.4026C203.344 85.4331 203.596 85.4636 203.847 85.4941C203.95 85.5064 204.054 85.5193 204.157 85.5324C204.408 85.5629 204.656 85.5948 204.903 85.6266C205.008 85.6405 205.114 85.6532 205.218 85.6667C205.33 85.6811 205.439 85.6962 205.55 85.7103C205.871 85.7533 206.187 85.7961 206.497 85.8388C206.537 85.8444 206.577 85.8492 206.615 85.8553C206.998 85.9081 207.371 85.9612 207.736 86.0157C207.752 86.0175 207.77 86.0204 207.787 86.0231C212.674 86.7451 216.009 87.5083 218.243 88.195C221.803 89.303 222.284 90.165 222.326 90.2622L222.333 90.2832C222.332 90.439 222.322 90.5995 222.304 90.7625C222.299 90.8143 222.288 90.8666 222.281 90.9189ZM233.849 90.4178C233.938 90.6417 234.132 90.8501 234.338 91.0387C234.073 90.9476 233.805 90.8204 233.598 90.5721C233.497 90.4484 233.417 90.2827 233.405 90.0992C233.398 89.9183 233.435 89.7266 233.523 89.5763C233.692 89.2712 233.938 89.0487 234.192 88.8822C234.447 88.7136 234.714 88.5702 234.989 88.4655C235.536 88.2407 236.104 88.1078 236.672 88.0107C237.243 87.9129 237.817 87.876 238.392 87.883C238.966 87.8869 239.541 87.9488 240.108 88.0585C240.676 88.1658 241.238 88.3208 241.78 88.5654C242.05 88.6912 242.312 88.8447 242.561 89.0317C242.797 89.2317 243.043 89.4818 243.134 89.8448C243.155 89.9332 243.153 90.0317 243.154 90.121C243.145 90.2121 243.121 90.3002 243.086 90.3804C243.016 90.5416 242.905 90.6648 242.789 90.7625C242.553 90.9577 242.284 91.0649 242.015 91.1433C242.239 90.9752 242.449 90.7891 242.594 90.5811C242.738 90.3695 242.781 90.148 242.683 89.985C242.498 89.6435 241.981 89.426 241.504 89.2827C240.516 88.9855 239.439 88.9088 238.383 88.9082C237.327 88.9122 236.253 88.9685 235.25 89.233C234.762 89.365 234.246 89.5437 233.958 89.8535C233.819 90.0038 233.758 90.1902 233.849 90.4178ZM265.082 55.4066C263.55 54.9001 262.013 54.4213 260.469 53.9591C259.745 53.4894 259.021 53.0172 258.273 52.5791C256.323 51.3743 254.292 50.2829 252.254 49.2069C250.196 48.1663 248.12 47.1513 245.999 46.2221C237.796 42.5832 229.205 39.7525 220.458 37.533C221.077 38.0177 221.69 38.5078 222.293 39.0095C223.616 40.1094 224.905 41.2426 226.159 42.4098C227.409 43.5797 228.639 44.7748 229.77 46.0542C228.469 44.9515 227.091 43.9536 225.697 42.9829C224.302 42.0155 222.88 41.0897 221.438 40.2059C219.997 39.3208 218.527 38.4874 217.041 37.7091C215.716 37.0157 214.372 36.3726 213.015 35.8002C211.017 35.374 209.011 34.9824 207 34.616C212.471 36.6941 218.479 42.5954 221.516 45.8577C220.737 45.7503 219.958 45.6429 219.18 45.5396C217.337 45.2955 215.491 45.0691 213.645 44.853C211.621 40.6879 206.306 35.9001 202.455 33.8411C199.01 33.2965 195.552 32.8316 192.085 32.4366C190.569 32.2619 189.051 32.1096 187.531 31.9703C187.611 32.009 187.691 32.0464 187.77 32.0852C186.819 32.0505 185.868 32.0206 184.917 31.9982C182.167 31.9349 179.42 31.9145 176.673 31.9105C179.403 32.2082 182.131 32.5223 184.849 32.8785C186.807 33.1361 188.763 33.4135 190.699 33.7411C191.073 33.9831 191.439 34.234 191.796 34.4923C190.168 34.4298 188.544 34.3896 186.919 34.3604C184.187 34.3149 181.456 34.3006 178.726 34.2979C181.44 34.5949 184.152 34.9022 186.857 35.2414C189.224 35.5399 191.587 35.8621 193.928 36.2462C194.131 36.4365 194.329 36.6309 194.523 36.8281C192.654 36.775 190.787 36.7444 188.922 36.7234C186.206 36.6941 183.492 36.6873 180.779 36.6853C183.477 36.981 186.173 37.2822 188.864 37.6044C191.258 37.8919 193.649 38.1965 196.024 38.5445C196.181 38.7464 196.333 38.9517 196.481 39.1604L182.832 39.0727L197.491 40.7742C197.611 40.9931 197.728 41.2154 197.84 41.4418L184.885 41.4601L198.491 42.94C198.546 43.0848 198.599 43.2303 198.652 43.3778L195.847 43.1841C194.731 43.1216 193.615 43.0651 192.5 43.0169L190.827 42.9564L189.163 42.8469L185.826 42.6205C183.6 42.4791 181.374 42.3445 179.146 42.2229C174.691 42.0053 170.228 41.781 165.766 41.8891C167.995 41.9679 170.217 42.1325 172.439 42.3051C174.66 42.4798 176.88 42.6783 179.097 42.8863C181.317 43.0882 183.535 43.303 185.752 43.5253L189.081 43.8476L190.75 44.0046L192.411 44.1956C196.837 44.6993 201.266 45.1269 205.684 45.6572C210.102 46.182 214.512 46.7754 218.909 47.4498C223.306 48.1203 227.688 48.8734 232.055 49.6937C236.424 50.5046 240.778 51.3953 245.102 52.3998C249.427 53.3985 253.721 54.5151 257.984 55.727C262.24 56.956 266.447 58.3331 270.58 59.8852C270.581 59.8857 270.582 59.8865 270.584 59.8873C279.177 63.1965 285.617 66.8496 289.64 70.6564C289.251 70.4804 288.861 70.3096 288.468 70.1479C287.476 69.7395 286.477 69.3675 285.471 69.0223C284.107 68.0302 282.653 67.1127 281.16 66.2489C276.34 63.5131 271.101 61.3292 265.753 59.4436C260.391 57.575 254.897 56.0159 249.352 54.6354C246.429 53.9121 243.491 53.2427 240.541 52.617C241.576 53.3905 242.592 54.1842 243.586 55.0019C245.046 56.1995 246.469 57.4342 247.854 58.7075C249.087 59.8467 250.298 61.0119 251.435 62.2424C251.387 62.2365 251.339 62.2312 251.29 62.2251C250.034 61.185 248.721 60.219 247.392 59.2803C245.865 58.2072 244.309 57.1799 242.731 56.1984C241.152 55.2145 239.544 54.2881 237.916 53.4208C236.354 52.5918 234.771 51.822 233.168 51.1465C232.967 51.109 232.766 51.0703 232.565 51.0328C230.23 50.6037 227.891 50.2035 225.547 49.8201C230.991 52.1563 236.701 57.5054 240.056 60.9952C237.309 60.7328 234.56 60.4978 231.809 60.2853C229.594 56.0136 224.438 51.3679 220.337 49.0022C213.078 47.919 205.784 47.0433 198.472 46.3594C198.415 46.3539 198.357 46.3492 198.299 46.3444C196.369 46.2635 194.44 46.22 192.513 46.2336C195.157 46.5579 197.781 46.9855 200.391 47.4742C202.221 47.8155 204.043 48.1899 205.867 48.5744C206.009 48.6525 206.15 48.7303 206.291 48.811C202.226 48.598 198.158 48.4637 194.096 48.4854C199.252 49.1113 204.357 49.9884 209.445 50.9563C207.639 50.8915 205.835 50.8418 204.031 50.8049C201.246 50.75 198.462 50.7237 195.681 50.7372C198.442 51.0665 201.198 51.4346 203.946 51.8316C206.518 52.2035 209.084 52.6032 211.638 53.0365C209.686 53.0021 207.739 52.988 205.79 52.9803L197.266 52.9888L205.725 54.0079C208.441 54.3494 211.157 54.7007 213.851 55.1054C211.745 55.1041 209.65 55.1306 207.552 55.1548C204.65 55.1901 201.751 55.2318 198.85 55.24C201.732 55.5746 204.62 55.8758 207.504 56.1835C210.168 56.4692 212.834 56.7528 215.474 57.092C215.493 57.1196 215.512 57.1466 215.53 57.1743C213.453 57.2112 211.385 57.2738 209.316 57.328C206.355 57.4077 203.396 57.486 200.433 57.4918C203.378 57.8288 206.332 58.0938 209.284 58.3578C211.742 58.5787 214.205 58.7888 216.645 59.0434C216.689 59.1284 216.736 59.212 216.778 59.297C210.749 58.9691 204.716 58.7184 198.677 58.5363C193.193 58.3833 187.71 58.276 182.224 58.2465C179.482 58.2245 176.739 58.2386 173.995 58.2606C171.252 58.2961 168.508 58.3347 165.766 58.4661C176.725 59.0254 187.68 59.4529 198.64 59.7742L200.689 59.8427L202.739 59.9489L206.841 60.1826C209.576 60.3459 212.309 60.523 215.042 60.7163C220.505 61.1032 225.964 61.5555 231.413 62.082C242.307 63.1651 253.188 64.4206 263.946 66.3132C266.634 66.7853 269.313 67.3063 271.976 67.8775C274.64 68.4449 277.289 69.0663 279.901 69.7883C282.511 70.5122 285.096 71.324 287.559 72.345C288.785 72.8588 289.988 73.4178 291.093 74.075C292.168 74.7133 293.184 75.4755 293.784 76.3257C294.021 76.8133 294.237 77.4025 294.246 77.5924C294.246 78.4687 293.329 81.1539 283.479 84.335C284.827 83.6077 286.155 82.9 287.435 82.1632C288.106 81.7866 288.755 81.3849 289.383 80.994C289.698 80.797 290.001 80.5901 290.294 80.3835C290.592 80.183 290.874 79.9751 291.141 79.763C291.672 79.3367 292.152 78.9089 292.472 78.5005C292.624 78.2971 292.753 78.1102 292.824 77.962C292.893 77.8133 292.912 77.7105 292.91 77.6521C292.915 77.636 292.912 77.6221 292.907 77.6107C292.909 77.599 292.907 77.5868 292.897 77.5746C292.892 77.5624 292.891 77.5502 292.895 77.5379C292.898 77.5236 292.876 77.5048 292.874 77.4875C292.863 77.4678 292.874 77.4538 292.858 77.4277C292.84 77.402 292.826 77.3755 292.814 77.3475C292.807 77.2961 292.732 77.2185 292.693 77.1471C292.613 77.0268 292.5 76.8921 292.363 76.7506L292.361 76.7522C292.361 76.7501 292.359 76.748 292.359 76.7461C292.147 76.5278 291.88 76.2947 291.582 76.0716C290.584 75.3164 289.268 74.6488 287.915 74.0628C285.179 72.8915 282.189 71.9921 279.17 71.2077C273.119 69.6136 266.866 68.4874 260.597 67.4877C254.325 66.472 248.003 65.6501 241.663 64.9486C238.493 64.5985 235.318 64.2778 232.139 63.9865C228.96 63.6864 225.779 63.401 222.595 63.1447C216.226 62.6269 209.846 62.2095 203.46 61.8627C190.685 61.2028 177.889 60.8956 165.09 60.8257C152.291 60.8505 139.494 61.1532 126.717 61.7612C120.329 62.0871 113.948 62.4968 107.576 62.9899C104.391 63.2395 101.208 63.5112 98.0289 63.8078C94.8496 64.1015 91.6711 64.3981 88.4993 64.7388C82.1551 65.4159 75.8285 66.2077 69.5456 67.1823C66.4067 67.6823 63.2726 68.1874 60.1594 68.7625C57.0457 69.3356 53.9548 69.9849 50.9072 70.7305C47.8697 71.4899 44.8457 72.3023 42.0067 73.3716C40.5954 73.9051 39.2079 74.4911 37.9983 75.1818C37.3817 75.5196 36.8376 75.8942 36.3643 76.2673C36.1661 76.4216 35.9925 76.5823 35.8452 76.7344C35.843 76.74 35.8399 76.7461 35.8377 76.7522L35.8314 76.7493C35.6339 76.9554 35.486 77.1484 35.4032 77.2952C35.3918 77.3524 35.3451 77.4107 35.3324 77.4538C35.3385 77.4896 35.2888 77.5311 35.3064 77.5523C35.2857 77.6033 35.2764 77.6372 35.2902 77.7283C35.305 77.8168 35.3597 77.9593 35.4667 78.1319C35.5675 78.3096 35.7082 78.5149 35.8975 78.7241C36.6595 79.5773 37.8584 80.4624 39.1078 81.2768C40.3704 82.0965 41.7209 82.9009 43.0963 83.7201C43.1879 83.7742 43.2808 83.83 43.3726 83.8852C34.7832 80.9021 33.9522 78.4264 33.9522 77.5924C33.9522 77.2482 34.2112 76.6577 34.3914 76.3544C34.6101 76.0329 34.8968 75.7182 35.2158 75.4162C35.5497 75.1124 35.9158 74.8228 36.3091 74.5516C37.0916 74.0057 37.959 73.5259 38.8535 73.0867C40.6499 72.2125 42.5583 71.4913 44.4951 70.846C48.378 69.5666 52.3809 68.56 56.4108 67.6768C60.4431 66.7973 64.5121 66.0506 68.5954 65.3819C72.6779 64.7048 76.7771 64.11 80.8854 63.5741C89.1021 62.5026 97.3542 61.6696 105.617 60.9407C113.877 60.2325 122.15 59.6236 130.432 59.1005C130.435 59.1005 130.437 59.1005 130.439 59.1005C130.441 59.1005 130.443 59.1 130.446 59.1C122.144 59.2205 113.841 59.4954 105.548 59.9914C97.2538 60.4681 88.9692 61.143 80.7017 62.0406C80.3336 62.0804 79.9657 62.1237 79.5973 62.1649C79.6185 62.0804 79.6437 61.9954 79.6713 61.9113L102.629 58.2585L80.5939 60.203C80.6138 60.176 80.6327 60.1486 80.6534 60.1223C82.63 59.7312 84.6352 59.3812 86.6363 59.0354L93.2624 57.9218C97.6828 57.1884 102.108 56.4762 106.526 55.7178C102.069 56.1846 97.6076 56.6044 93.1469 57.0468L86.4551 57.7237C85.3824 57.8371 84.3115 57.9512 83.2388 58.0726C85.267 57.6215 87.3325 57.2271 89.3938 56.8418C91.7229 56.4103 94.0578 55.9968 96.3944 55.589L110.422 53.1771L96.2696 54.7151C93.9105 54.9777 91.552 55.2459 89.1928 55.5329C88.2246 55.6524 87.2574 55.7746 86.2897 55.9021C88.2209 55.4429 90.1864 55.0404 92.1489 54.6487C94.6009 54.1638 97.0611 53.7046 99.5238 53.2551C104.449 52.3557 109.386 51.5044 114.32 50.6364C109.344 51.2131 104.366 51.7731 99.3913 52.3823C96.9037 52.6871 94.4164 53.0013 91.9302 53.3427C91.0557 53.4643 90.1821 53.5897 89.3086 53.719C91.1536 53.2586 93.0288 52.8512 94.9016 52.4555C97.4768 51.9168 100.063 51.4117 102.652 50.9202C107.83 49.9372 113.023 49.0163 118.217 48.0959C112.981 48.725 107.744 49.3551 102.511 50.0484C100.407 50.3278 98.3044 50.6209 96.202 50.9295C96.0127 50.9635 95.8227 50.9953 95.6337 51.0304C89.9993 52.0766 84.394 53.2604 78.8461 54.6338C78.3373 54.7602 77.8287 54.8903 77.321 55.0202C73.6313 56.857 67.508 60.2596 63.5154 64.3397C61.0104 64.7512 58.5092 65.1966 56.0148 65.6952C61.318 61.4896 67.8777 58.2394 71.7704 56.5152C68.6294 57.4068 65.5152 58.3726 62.4447 59.4404C57.0969 61.3263 51.8575 63.5112 47.0376 66.2468C45.4708 67.1544 43.948 68.1216 42.5251 69.1718C41.1507 69.6415 39.7862 70.1601 38.441 70.7666C42.4564 66.9202 48.942 63.2275 57.6309 59.8812L57.6458 59.8746C64.1413 57.3625 70.8486 55.3561 77.6156 53.5828L80.157 52.9251L82.712 52.3172L85.2681 51.712L87.8347 51.1478L90.4011 50.5811L92.9776 50.0577L95.5543 49.5343L98.1398 49.0524L100.726 48.5707L103.319 48.1256C105.048 47.8296 106.777 47.532 108.512 47.2737C110.246 47.0025 111.976 46.7108 113.715 46.4715C115.453 46.2268 117.187 45.9515 118.93 45.736C125.884 44.7952 132.86 43.9951 139.856 43.3126C139.857 43.3126 139.858 43.3126 139.86 43.3126C139.863 43.3119 139.867 43.3119 139.87 43.3112C132.841 43.5607 125.818 44.0481 118.813 44.7462C117.06 44.9046 115.314 45.1222 113.564 45.3091C111.813 45.4927 110.067 45.7231 108.32 45.9427C106.572 46.1588 104.83 46.4144 103.088 46.6694L100.474 47.0514L99.6926 47.1772C99.7218 47.0589 99.7558 46.9399 99.7966 46.8216C100.31 46.7197 100.823 46.6191 101.337 46.5178L106.765 45.4281C110.383 44.7027 113.999 43.9713 117.628 43.3112C113.956 43.6803 110.291 44.1215 106.626 44.5559L101.13 45.2092C100.966 45.2282 100.802 45.2473 100.637 45.2663C100.691 45.1922 100.745 45.1174 100.804 45.0433C101.905 44.8074 103.004 44.5681 104.101 44.3248L109.297 43.1684C112.761 42.4037 116.223 41.6376 119.712 40.9945C116.18 41.3466 112.659 41.8245 109.142 42.2997L103.868 43.0216C103.452 43.078 103.034 43.1331 102.616 43.1902C102.637 43.1719 102.657 43.1542 102.678 43.1365C104.083 42.8143 105.476 42.4757 106.867 42.1331L111.828 40.9068C115.137 40.1012 118.446 39.3025 121.796 38.6771C118.403 39.0109 115.026 39.5234 111.656 40.0407L106.605 40.8354C106.34 40.8769 106.076 40.917 105.811 40.9578C107.094 40.6315 108.366 40.2889 109.633 39.9415L114.358 38.6431C117.511 37.7961 120.666 36.9654 123.879 36.3604C120.624 36.6737 117.389 37.2196 114.166 37.7811L109.851 38.5581C109.911 38.5275 109.971 38.4963 110.032 38.465C110.825 38.2318 111.613 37.9912 112.4 37.7498L116.888 36.3774C119.881 35.4855 122.886 34.6283 125.962 34.0436C122.843 34.3366 119.749 34.9117 116.674 35.5208L116.161 35.6262C116.206 35.6078 116.25 35.5888 116.295 35.5704C113.71 36.1061 111.137 36.6853 108.578 37.3209C106.386 37.8661 104.204 38.4514 102.034 39.0761C98.0551 41.0468 91.0012 44.9094 86.4359 49.5216L84.8595 49.8323L82.2743 50.3944L79.6888 50.9595L79.5704 50.9879C85.2664 46.3376 92.1664 42.7517 96.1921 40.8721C91.4351 42.4295 86.7571 44.2004 82.1992 46.2221C80.0785 47.1513 78.0028 48.1663 75.9437 49.2069C73.9063 50.2829 71.8752 51.3743 69.9254 52.5791C69.075 53.0767 68.258 53.6173 67.4342 54.1492C65.8822 54.6054 64.3364 55.0858 62.7967 55.5884C79.9837 42.5655 114.132 30.487 158.279 29.5013C158.876 29.4884 159.474 29.4755 160.073 29.4673C160.427 29.4619 160.781 29.4564 161.137 29.4523C162.122 29.4415 163.108 29.434 164.099 29.434C165.089 29.434 166.075 29.4415 167.06 29.4523C167.414 29.4564 167.767 29.4612 168.12 29.4673C168.722 29.4755 169.321 29.4877 169.92 29.5013C213.914 30.4829 247.981 42.4832 265.226 55.4551C265.178 55.4392 265.13 55.4225 265.082 55.4066ZM246.138 50.2532C245.02 49.4602 243.868 48.7055 242.693 47.9809C239.965 46.2989 237.129 44.7721 234.258 43.3112C237.25 44.5042 240.219 45.768 243.121 47.2091C244.571 47.9302 246.005 48.6936 247.407 49.532C248.227 50.024 249.037 50.5421 249.826 51.1053C248.598 50.8116 247.37 50.5262 246.138 50.2532ZM272.458 65.5891C271.361 65.3647 270.262 65.1514 269.164 64.9459C269.136 64.9278 269.109 64.9106 269.082 64.8926C267.659 63.9905 266.189 63.146 264.703 62.3295C261.725 60.7009 258.672 59.1886 255.57 57.7794C258.783 58.916 261.96 60.1622 265.093 61.5374C266.658 62.2286 268.212 62.9509 269.742 63.7449C270.911 64.3596 272.07 65.0022 273.196 65.7489C272.95 65.6958 272.704 65.6408 272.458 65.5891ZM168.987 7.14437C168.987 6.66987 169.451 6.28511 170.024 6.28511C170.596 6.28511 171.06 6.66987 171.06 7.14437C171.06 7.61818 170.596 8.00294 170.024 8.00294C169.451 8.00294 168.987 7.61818 168.987 7.14437ZM295.866 75.224C293.126 68.8088 284.979 62.9389 271.623 57.7651C263.408 49.9411 249.769 42.6505 233.182 37.2223C227.94 35.5065 222.455 34.0015 216.774 32.7106C214.419 28.1886 211.594 24.8774 205.226 22.5926C203.246 19.0271 200.721 16.2617 196.207 14.2652C195.954 14.153 195.693 14.0442 195.426 13.9375C193.698 9.56237 187.323 0.695202 164.099 0.695202C140.876 0.695202 134.5 9.56305 132.771 13.9375C132.506 14.0442 132.245 14.153 131.991 14.2652C127.478 16.2617 124.953 19.0271 122.973 22.5926C116.604 24.8774 113.78 28.1886 111.425 32.7106C105.743 34.0015 100.259 35.5065 95.0168 37.2223C78.4291 42.6511 64.7906 49.9417 56.5756 57.7656C43.2577 62.9204 35.1089 68.7788 32.3501 75.1826C32.1497 75.5251 31.5992 76.561 31.5992 77.5924C31.5992 81.9696 38.5727 85.6954 52.9181 88.9836C65.8496 91.9468 84.0325 94.3349 105.529 95.8949C107.071 98.1003 109.381 100.068 112.044 101.297C112.044 101.327 112.04 101.355 112.04 101.385C112.04 111.283 128.096 115.698 164.099 115.698C200.589 115.698 216.158 111.417 216.158 101.385C216.158 101.355 216.155 101.327 216.154 101.297C218.818 100.068 221.127 98.1003 222.67 95.8949C244.166 94.3349 262.349 91.9468 275.28 88.9836C289.626 85.6954 296.599 81.9696 296.599 77.5924C296.599 76.7724 296.06 75.6128 295.866 75.224Z" fill="#869EDC"/>
<path d="M154.197 111.627C150.538 111.313 146.905 110.822 143.299 110.205C139.689 109.593 136.114 108.845 132.507 108.109C132.506 108.109 132.506 108.109 132.506 108.109C125.916 107.136 123.94 106.145 123.38 105.74C123.611 105.572 124.085 105.305 125.019 104.981C125.271 105.183 125.506 105.318 125.734 105.435C126.224 105.685 126.689 105.85 127.151 105.998C128.073 106.29 128.979 106.493 129.884 106.674C131.694 107.029 133.498 107.278 135.302 107.494C138.909 107.914 142.517 108.196 146.127 108.391C142.561 107.807 139.01 107.136 135.503 106.334C133.752 105.929 132.009 105.49 130.319 104.963C129.552 104.721 128.794 104.458 128.083 104.157C128.758 104.01 129.525 103.86 130.395 103.709C130.601 103.844 130.8 103.953 130.991 104.041C131.302 104.19 131.603 104.302 131.902 104.405C132.498 104.608 133.082 104.76 133.664 104.896C134.828 105.163 135.983 105.356 137.139 105.524C139.449 105.851 141.756 106.076 144.065 106.233C141.817 105.689 139.587 105.078 137.403 104.376C136.314 104.023 135.234 103.645 134.201 103.214C134.156 103.194 134.113 103.174 134.067 103.154C134.588 103.086 135.133 103.018 135.704 102.95C136.182 102.894 136.67 102.839 137.166 102.785C139.038 104.018 150.382 104.965 164.099 104.965C177.817 104.965 189.161 104.018 191.033 102.785C191.528 102.839 192.016 102.894 192.495 102.95C192.942 103.004 193.369 103.057 193.786 103.11C193.707 103.144 193.631 103.18 193.552 103.214C192.519 103.645 191.438 104.023 190.35 104.376C188.166 105.078 185.936 105.689 183.688 106.233C185.998 106.076 188.304 105.851 190.614 105.524C191.77 105.356 192.925 105.163 194.089 104.896C194.671 104.76 195.256 104.608 195.851 104.405C196.15 104.302 196.45 104.19 196.762 104.041C196.982 103.94 197.211 103.814 197.449 103.649C198.339 103.799 199.127 103.947 199.822 104.093C199.068 104.423 198.256 104.704 197.434 104.963C195.744 105.49 194.001 105.929 192.25 106.334C188.743 107.136 185.192 107.807 181.626 108.391C185.236 108.196 188.843 107.914 192.451 107.494C194.255 107.278 196.058 107.029 197.868 106.674C198.774 106.493 199.68 106.29 200.603 105.998C201.065 105.85 201.529 105.685 202.019 105.435C202.264 105.309 202.517 105.165 202.789 104.937C202.813 104.92 202.838 104.897 202.863 104.876C204.01 105.247 204.563 105.555 204.818 105.74C204.271 106.135 202.377 107.088 196.166 108.037C196.166 108.037 196.166 108.037 196.166 108.037C192.485 108.803 188.83 109.567 185.14 110.19C181.452 110.816 177.738 111.31 173.997 111.627C177.75 111.703 181.516 111.599 185.275 111.36C189.034 111.124 192.792 110.742 196.521 110.364L196.526 110.364C196.565 110.36 196.606 110.353 196.645 110.345C196.647 110.345 196.648 110.345 196.649 110.344C206.059 108.892 207.334 107.203 207.334 105.74C207.334 104.125 205.749 102.269 193.988 100.763C185.997 99.7384 175.381 99.1749 164.099 99.1749C152.817 99.1749 142.201 99.7384 134.21 100.763C122.45 102.269 120.864 104.125 120.864 105.74C120.864 107.238 122.205 108.967 132.152 110.435C132.154 110.435 132.157 110.436 132.16 110.436L132.163 110.437C135.81 110.782 139.485 111.15 143.163 111.374C146.842 111.605 150.526 111.706 154.197 111.627Z" fill="#869EDC"/>
<ellipse cx="164.099" cy="103.312" rx="29.272" ry="2.84157" fill="#F5F5F5"/>
</g>
<path d="M151.838 188.082C154.07 183.943 156.362 180.576 158.715 177.98C161.126 175.368 163.488 173.375 165.804 172C168.176 170.607 170.514 169.721 172.818 169.342C175.122 168.962 177.303 168.898 179.361 169.149C181.477 169.383 183.445 169.848 185.264 170.543C187.121 171.257 188.77 172.003 190.211 172.78C191.579 173.518 193.034 174.446 194.578 175.564C196.178 176.665 197.649 178.007 198.991 179.589C200.389 181.154 201.544 182.993 202.456 185.106C203.424 187.202 203.96 189.614 204.064 192.341C204.205 195.089 203.828 198.177 202.933 201.606C202.075 205.055 200.51 208.886 198.239 213.099L176.659 253.125C174.427 257.264 172.107 260.64 169.696 263.252C167.343 265.847 164.971 267.859 162.578 269.288C160.186 270.717 157.818 271.659 155.474 272.112C153.151 272.529 150.94 272.649 148.841 272.471C146.763 272.257 144.803 271.821 142.964 271.163C141.161 270.525 139.595 269.847 138.264 269.13C136.786 268.333 135.248 267.337 133.65 266.142C132.053 264.946 130.575 263.529 129.217 261.891C127.878 260.215 126.744 258.292 125.816 256.122C124.924 253.971 124.436 251.514 124.352 248.75C124.268 245.986 124.674 242.889 125.569 239.46C126.463 236.031 128.027 232.247 130.258 228.108L151.838 188.082ZM141.691 242.071C139.579 245.988 138.747 249.213 139.195 251.744C139.68 254.295 141.382 256.358 144.302 257.932C147.148 259.466 149.751 259.725 152.112 258.708C154.473 257.691 156.709 255.224 158.821 251.306L186.469 200.027C188.7 195.888 189.622 192.497 189.234 189.855C188.846 187.213 187.229 185.125 184.383 183.591C181.463 182.017 178.775 181.783 176.317 182.891C173.896 184.019 171.57 186.652 169.339 190.792L141.691 242.071Z" fill="#869EDC"/>
<path d="M78.7583 199.064V247.464H97.9583V260.464H78.7583V287.864H63.3583V260.464H15.1583V246.064L44.9583 146.264L59.7583 149.064L30.7583 247.464H63.3583V220.264L67.1583 199.064H78.7583Z" fill="#869EDC"/>
<path d="M296.04 199.064V247.464H315.24V260.464H296.04V287.864H280.64V260.464H232.44V246.064L262.24 146.264L277.04 149.064L248.04 247.464H280.64V220.264L284.44 199.064H296.04Z" fill="#869EDC"/>
<path d="M76.5992 319.697L121.092 104.595L130.599 102.697L76.5992 319.697Z" fill="#869EDC"/>
<path d="M251.599 310.697L204.753 102.697L195.599 102.697L251.599 310.697Z" fill="#869EDC"/>
<circle cx="145.163" cy="153.892" r="1.76614" fill="#869EDC"/>
<circle cx="206.951" cy="171.332" r="1.76614" fill="#869EDC"/>
<circle cx="119.545" cy="243.834" r="1.76614" fill="#869EDC"/>
<defs>
<clipPath id="clip0_2_35">
<rect width="265" height="115" fill="white" transform="translate(31.5992 0.697235)"/>
</clipPath>
</defs>
</svg>
