<svg width="647" height="86" viewBox="0 0 647 86" fill="none" xmlns="http://www.w3.org/2000/svg">
<g clip-path="url(#clip0_1_2)">
<path fill-rule="evenodd" clip-rule="evenodd" d="M218.632 85.6061C229.99 85.6061 240.873 81.0898 248.899 73.0637C256.925 65.0376 261.428 54.1547 261.428 42.8094V42.7959C261.428 31.4506 256.925 20.5677 248.899 12.5416C240.873 4.51553 229.99 -0.000793457 218.632 -0.000793457C201.219 -0.000793457 185.112 -0.000793457 185.112 -0.000793457V85.6061H218.632ZM297.437 85.6061V-0.000793457H275.508V85.6061H297.437ZM171.033 20.3772V-0.000793457H104.036V85.6061H171.033V63.3508H127.434V52.3863H167.183V31.3553H127.434V20.3772H171.033ZM89.9559 85.6061H65.456V39.1773L44.3161 70.2341L24.4961 39.1773V85.6061H0.00976562V-0.000793457H24.8225L44.3161 30.5528L65.1159 -0.000793457H89.9559V85.6061ZM237.935 42.1701C237.935 36.5926 235.717 31.2465 231.772 27.3015C227.827 23.3565 222.481 21.1391 216.904 21.1391C211.272 21.1391 206.715 21.1391 206.715 21.1391V63.7452H216.904C222.481 63.7452 227.827 61.5279 231.772 57.5829C235.717 53.6379 237.935 48.2917 237.935 42.7142C237.935 42.5374 237.935 42.3605 237.935 42.1701Z" fill="#F32D35"/>
<path fill-rule="evenodd" clip-rule="evenodd" d="M337.567 69.2955H371.358L364.026 50.9715H344.981L355.048 26.118L344.464 -0.000793457H342.696L308.021 85.6061H330.956L337.567 69.2955Z" fill="#F32D35"/>
<path fill-rule="evenodd" clip-rule="evenodd" d="M536.9 -0.000793457L571.575 85.6061H548.639L542.123 69.5131H508.482L501.966 85.6061H479.03L513.706 -0.000793457H536.9ZM534.056 49.6111L525.296 27.9817L516.549 49.6111H534.056Z" fill="#0E1733"/>
<path fill-rule="evenodd" clip-rule="evenodd" d="M589.979 50.3049L558.678 -0.000793457H587.136L602.535 28.7434L617.948 -0.000793457H646.393L615.105 50.3049V85.6061H589.979V50.3049Z" fill="#0E1733"/>
<path fill-rule="evenodd" clip-rule="evenodd" d="M434.669 0.000671387L450.436 51.4954L468.529 0.000671387H493.614L461.414 85.6034H442.641L425.922 34.1849L409.217 85.6034H390.444V85.6007L390.431 85.6034L358.231 0.000671387H383.316L401.409 51.4954L417.176 0.000671387H434.669Z" fill="#0E1733"/>
</g>
<defs>
<clipPath id="clip0_1_2">
<rect width="647" height="86" fill="white"/>
</clipPath>
</defs>
</svg>
